<?xml version="1.0" standalone="no"?>
<!DOCTYPE svg PUBLIC "-//W3C//DTD SVG 1.1//EN" "http://www.w3.org/Graphics/SVG/1.1/DTD/svg11.dtd" >
<svg xmlns="http://www.w3.org/2000/svg">
<metadata></metadata>
<defs>
<font id="autre_planete_icons_socialnRg" horiz-adv-x="1728" >
<font-face units-per-em="2048" ascent="1536" descent="-512" />
<missing-glyph horiz-adv-x="1024" />
<glyph horiz-adv-x="0" />
<glyph unicode="&#xd;" horiz-adv-x="1024" />
<glyph horiz-adv-x="0" />
<glyph horiz-adv-x="0" />
<glyph unicode=" "  horiz-adv-x="1024" />
<glyph unicode="&#x09;" horiz-adv-x="1024" />
<glyph unicode="&#xa0;" horiz-adv-x="1024" />
<glyph unicode="$" horiz-adv-x="1708" d="M102 764q0 139 47.5 264t131.5 224.5t196.5 167t245.5 91.5q-47 -23 -82 -43t-57 -36q-27 -20 -45 -39q-86 -96 -135.5 -186.5t-49.5 -200.5q0 -119 56.5 -218.5t156.5 -177.5l-39 -286l265 170q72 -27 138 -39.5t152 -12.5q135 0 257 35t219 96l51 31 q-29 -129 -96.5 -239.5t-166 -190.5t-222.5 -126t-261 -46q-158 0 -296 60.5t-241.5 164t-164 241.5t-60.5 296zM664 1024q0 70 34.5 132.5t94 108.5t139.5 72.5t172 26.5t173 -26.5t140.5 -72.5t94 -108.5t34.5 -132.5q0 -72 -34.5 -133.5t-94 -108.5t-140.5 -73.5 t-173 -26.5t-172 26.5t-139.5 73.5t-94 108.5t-34.5 133.5z" />
<glyph unicode="%" d="M102 762q0 158 60.5 296t164 241.5t241.5 164t296 60.5t296 -60.5t241.5 -164t164 -241.5t60.5 -296t-60.5 -296t-164 -241.5t-241.5 -164t-296 -60.5t-296 60.5t-241.5 164t-164 241.5t-60.5 296zM547 856h127v-424q2 -59 35 -106q29 -41 91 -73t179 -32q41 6 78 19 q33 10 66.5 26.5t58.5 38.5v170q-23 -16 -45 -26q-20 -10 -47 -18.5t-54 -8.5q-74 0 -91 20.5t-17 55.5v356l254 2v191h-254v253h-160q-6 -57 -31 -110q-23 -47 -66.5 -95t-123.5 -77v-162z" />
<glyph unicode="&#x26;" d="M102 762q0 158 60.5 296t164 241.5t241.5 164t296 60.5t296 -60.5t241.5 -164t164 -241.5t60.5 -296t-60.5 -296t-164 -241.5t-241.5 -164t-296 -60.5t-296 60.5t-241.5 164t-164 241.5t-60.5 296zM381 999l184 -159l281 182l-184 156zM393 659l262 -170l185 150 l-273 176zM547 430l317 -211v393l-202 -172l-115 78v-88zM895 1022l283 -182l188 161l-287 179zM928 612l2 -391l317 250l-2 78l-153 -111zM944 641l146 -145l260 168l-172 145z" />
<glyph unicode="*" d="M102 762q0 158 59.5 296t163 241.5t242.5 164t297 60.5t296 -60.5t241.5 -164t164 -241.5t60.5 -296t-60.5 -296t-164 -241.5t-241.5 -164t-296 -60.5t-297 60.5t-242.5 164t-163 241.5t-59.5 296zM385 733q0 -154 92 -313q92 -164 189 -164q31 0 82 23q57 20 90 20 q41 0 94 -20t88 -21q78 0 162 123q27 41 46 80t29 78q-55 14 -98 77q-43 61 -43 140q0 74 41 129q10 16 28.5 34.5t41.5 38.5q-33 41 -64 64q-59 41 -135 41q-43 0 -106 -23q-61 -20 -91 -20q-23 0 -86 18q-68 18 -110 19q-109 0 -178 -90q-72 -90 -72 -234zM813 1085 q39 2 66 11q35 12 67 45q39 39 58 86q18 45 18 86v12q0 2 -4 14q-111 -28 -156 -94q-47 -68 -49 -160z" />
<glyph unicode="+" horiz-adv-x="1724" d="M102 762q0 158 59.5 297t163 242.5t242.5 163t297 59.5t296 -59.5t241.5 -163t164 -242.5t60.5 -297t-60.5 -296t-164 -241.5t-241.5 -164t-296 -60.5t-297 60.5t-242.5 164t-163 241.5t-59.5 296zM323 452.5q-1 -6.5 3 -10.5q4 -2 12 1t16 8l21 12q51 23 103 23.5 t94 -8.5t72 -22.5t40 -21.5q16 -12 23 -6q4 4 6 10l94 338q-78 49 -148.5 58.5t-123.5 1.5q-63 -10 -115 -39l-94 -334q-2 -4 -3 -10.5zM445.5 864q-1.5 -6 3.5 -10q4 -2 12 1t16 7l21 12q51 23 102 24t94 -8t73 -22.5t40 -21.5q16 -12 22 -6q4 4 7 10l92 338 q-78 47 -147.5 57t-123.5 2q-61 -8 -114 -39l-94 -334q-2 -4 -3.5 -10zM766 385q78 -51 147.5 -60.5t122.5 -0.5q61 8 115 36l96 334q4 4 4 10.5t-4 10.5q-4 2 -12 -1t-16 -7q-10 -6 -21 -13q-51 -23 -102.5 -23.5t-94.5 8.5t-73.5 23.5t-38.5 22.5q-16 12 -23 6 q-4 -4 -6 -10zM883 795q78 -49 147.5 -59.5t122.5 -2.5q63 8 117 39l96 334q2 4 3 10t-3 10q-12 0 -29 -10q-8 -6 -20 -10q-53 -23 -104.5 -24t-93.5 8.5t-72.5 23.5t-38.5 23q-16 14 -25 6q-4 -4 -4 -10z" />
<glyph unicode="," horiz-adv-x="1724" d="M102 760q0 158 59.5 296t163 241.5t241.5 163t296 59.5t296 -59.5t241.5 -163t163 -241.5t59.5 -296t-59.5 -296t-163 -241.5t-241.5 -163t-296 -59.5t-296 59.5t-241.5 163t-163 241.5t-59.5 296zM403 748q0 -29 3.5 -47.5t11.5 -47.5q2 2 32.5 28t75.5 61.5t96.5 77.5 t95.5 78t73.5 60.5t31.5 26.5q-4 2 -29.5 25.5t-56 51.5t-55.5 50.5t-27 24.5q-113 -57 -182.5 -159.5t-69.5 -229.5zM434 563q27 -68 70 -128t104 -99v381q-6 -6 -32.5 -29.5t-57.5 -51.5t-56.5 -49.5t-27.5 -23.5zM670 349q0 -32 2 -34q39 -29 84 -39t86 -12q47 -2 92 4 q119 25 213 88.5t145 167.5h-620q0 -4 -1 -35.5t-1 -69.5v-70zM717 1176q2 -2 26.5 -27t60.5 -57.5t78 -72.5t77.5 -73t61.5 -57.5t30 -26.5v303q-39 33 -90.5 45.5t-98.5 12.5q-80 0 -145 -47zM1116 590h189q12 35 25 80t13 82q0 57 -17 114.5t-47 108.5t-72 93t-91 73 v-551z" />
<glyph unicode="-" d="M102 762q0 158 60.5 297t164 242.5t241.5 163t296 59.5t297 -59.5t242.5 -163t163 -242.5t59.5 -297t-59.5 -296t-163 -241.5t-242.5 -164t-297 -60.5t-296 60.5t-241.5 164t-164 241.5t-60.5 296zM422 594q16 -49 50 -85t74 -60.5t82 -39t79 -20.5l-64 -102h-63v-127h63 v63h64v-63h127v190h63v-127v-63h127v63h63v-63h64v127h-64l-63 254h-63v51q180 25 256.5 121t76.5 239q0 37 -2 67t-11 54.5t-27.5 48t-51.5 49.5q-8 47 -16 83t-17 61q-8 29 -18 51q-68 -70 -133.5 -99.5t-118.5 -35.5q-23 4 -46.5 2t-43.5 -6q-55 2 -133 28.5t-160 110.5 q-12 -41 -24 -84q-10 -39 -21.5 -86t-15.5 -98q-18 -29 -26.5 -68t-6.5 -78q0 -143 84 -239.5t264 -120.5v-51h-63v-111q-27 4 -64 16.5t-71.5 34t-64.5 52t-44 71.5zM506 920q0 53 22.5 101t66.5 85t108.5 58.5t150.5 21.5t151.5 -21.5t109.5 -58.5t66.5 -85t22.5 -101 q0 -104 -85 -178t-247 -74h-34q-164 0 -248 73.5t-84 178.5zM633 942q0 -47 25.5 -80t62.5 -33t62.5 33t25.5 80t-25.5 80t-62.5 33t-62.5 -33t-25.5 -80zM707 223v127h63v-127h-63zM831 1235h5l-2 2zM903 942q0 -47 25.5 -80t62.5 -33t62.5 33t25.5 80t-25.5 80t-62.5 33 t-62.5 -33t-25.5 -80zM961 223v127h63v-63v-64h-63z" />
<glyph unicode="." d="M102 762q0 158 60.5 296t164 241.5t241.5 164t296 60.5t296 -60.5t241.5 -164t164 -241.5t60.5 -296t-60.5 -296t-164 -241.5t-241.5 -164t-296 -60.5t-296 60.5t-241.5 164t-164 241.5t-60.5 296zM393 979q0 -72 37 -131q-4 -23 -7 -45.5t-3 -46.5q0 -92 34.5 -174 t96 -143.5t143.5 -96.5t174 -35q23 0 42.5 2t41.5 6q51 -30 123 -30q53 0 100.5 20.5t83 55t56 83t20.5 101.5q0 61 -28 114q6 25 8 48.5t2 48.5q0 92 -35 174t-96.5 143.5t-143 97t-174.5 35.5q-18 0 -37.5 -2t-37.5 -6q-63 41 -140 41q-53 0 -101 -20.5t-83 -56.5 t-55.5 -83t-20.5 -100zM610 625q0 25 19 43q20 16 47 16q25 0 39 -14q18 -14 26 -37q14 -33 27 -47q14 -16 37 -29q20 -10 65 -10q59 0 91 22q33 20 32 56q0 27 -16 43t-49 26q-16 4 -36 9.5t-46 11.5q-66 14 -117 35q-51 23 -78 57q-29 35 -28 90q0 49 30 90q33 42 86 60 q61 23 133 22q29 0 55.5 -4t49.5 -10q43 -16 74 -37q31 -25 43 -49q14 -27 14 -51q0 -25 -18 -44q-20 -20 -46 -20q-27 0 -38 12q-6 6 -13.5 15.5t-13.5 21.5q-20 33 -41 49q-18 16 -76 17q-47 0 -78 -19q-27 -18 -26 -43q0 -16 8 -26q4 -6 11 -11.5t16 -9.5q18 -10 36 -12 q10 -4 24.5 -8t37.5 -9q29 -6 53.5 -12t46.5 -14q43 -12 76 -35q35 -23 51 -53q18 -31 19 -78q0 -59 -33 -100q-29 -45 -90 -70q-59 -25 -142 -25q-96 0 -159 33q-45 25 -74 66q-29 45 -29 82z" />
<glyph unicode="/" horiz-adv-x="1722" d="M102 760q0 158 59.5 296t163 241.5t241.5 163t296 59.5t296 -59.5t241.5 -163t163 -241.5t59.5 -296t-59.5 -296t-163 -241.5t-241.5 -163t-296 -59.5t-296 59.5t-241.5 163t-163 241.5t-59.5 296zM547 684q0 -72 28 -139q14 -33 34 -63.5t44 -53.5q25 -25 52.5 -47.5 t60.5 -36.5t67.5 -27.5t71.5 -13.5h41q37 0 71 13.5t66 27.5q33 14 62 40t53 50q47 47 78 113q27 61 27 139q0 76 -27 137q-16 33 -34.5 61.5t-43.5 51.5q-51 49 -115 78q-68 29 -137 28h-45q-29 0 -49.5 -20.5t-20.5 -48.5q0 -29 20.5 -48.5t49.5 -19.5h45q43 0 86 -16 q35 -16 70 -47q31 -33 47 -72q18 -41 18 -86q0 -49 -18 -88q-16 -45 -47 -76q-16 -16 -32.5 -31.5t-37.5 -23.5q-20 -10 -41.5 -22.5t-44.5 -12.5h-41q-23 0 -44 12.5t-42 22.5q-20 8 -37.5 28.5t-33.5 34.5q-16 16 -26.5 34t-21.5 38q-16 43 -16 86v438q0 29 -20.5 47.5 t-49.5 18.5t-48 -19.5t-19 -48.5v-438z" />
<glyph unicode="0" horiz-adv-x="1726" d="M102 760q0 158 59.5 296t163 241.5t241.5 163t296 59.5t296 -59.5t241.5 -163t163 -241.5t59.5 -296t-59.5 -296t-163 -241.5t-241.5 -163t-296 -59.5t-296 59.5t-241.5 163t-163 241.5t-59.5 296zM674 696h61v-444h191v444h129l16 191h-145v61q0 27 15 46.5t28 19.5h84 v131l-133 2q-57 0 -93 -19.5t-56.5 -48t-28 -62.5t-7.5 -61v-69h-61v-191z" />
<glyph unicode="1" horiz-adv-x="1726" d="M102 762q0 156 60.5 295t164 241.5t241.5 163t296 60.5q156 0 295 -60.5t241.5 -163t163 -241.5t60.5 -295q0 -158 -60.5 -296t-163 -241.5t-241.5 -164t-295 -60.5q-158 0 -296 60.5t-241.5 164t-164 241.5t-60.5 296zM387 369q63 -43 139 -68q66 -23 152 -31t188 21 q100 29 171 75t116 92t68.5 86t29.5 56q8 16 20.5 46t25 70t19.5 89t3 102q29 23 51 45q20 18 36.5 38t20.5 30q-20 -8 -43 -16q-18 -6 -39.5 -11.5t-39.5 -7.5q23 16 43 37q16 16 31.5 37.5t19.5 44.5q-25 -14 -47 -25q-20 -10 -44 -18t-44 -8q-31 29 -68 47q-33 16 -76 20 t-94 -16q-51 -23 -78.5 -56.5t-40 -69.5t-13.5 -68.5t1 -51.5q-70 0 -143 23q-63 20 -140 64t-155 136q-25 -45 -29 -94q-4 -41 13.5 -91t76.5 -97q-6 -4 -18 -2q-27 0 -74 22q0 -45 16 -84q14 -35 48 -69.5t100 -55.5q-8 -4 -19 -6q-10 -2 -26.5 -3t-40.5 3q10 -37 35 -67 q23 -27 59.5 -51.5t97.5 -28.5q-37 -31 -84 -54q-41 -18 -97 -31.5t-128 -2.5z" />
<glyph unicode="2" horiz-adv-x="1726" d="M102 760q0 158 59.5 296t163 241.5t241.5 163t296 59.5t296 -59.5t241.5 -163t163 -241.5t59.5 -296t-59.5 -296t-163 -241.5t-241.5 -163t-296 -59.5t-296 59.5t-241.5 163t-163 241.5t-59.5 296zM481 426q0 -37 20.5 -68.5t57.5 -55t88.5 -38t110.5 -14.5 q66 0 115 17.5t82.5 45t51 63.5t17.5 73q0 59 -21.5 100t-74.5 78q-23 16 -41.5 35.5t-18.5 27.5q0 14 6.5 24.5t36.5 33.5q35 29 54.5 72.5t23.5 86.5q2 37 -4 68t-15 53.5t-17.5 35.5t-10.5 13h57l115 64h-328q-45 0 -90 -19.5t-79.5 -51.5t-57 -73t-22.5 -82 q0 -88 60 -147t148 -59q-6 -18 -6 -29q0 -16 4.5 -30.5t12.5 -14.5h-8q-53 0 -101.5 -17.5t-85.5 -47t-58.5 -67.5t-21.5 -77zM621 453q0 20 12 40.5t32.5 38t48 27.5t58.5 10h2q12 0 25.5 -7t25.5 -11l15 -23q29 -20 47 -33.5t22 -35.5q2 -6 2 -19q0 -102 -153 -102 q-59 0 -98 34t-39 81zM666 895q-8 63 22 100q18 18 51 19h2q43 0 77 -38t42 -93q8 -61 -24 -101q-23 -22 -54 -22q-41 0 -75.5 40t-40.5 95zM1053 823h127v-127h61v127h127v64h-127v127h-61v-127h-127v-64z" />
<glyph unicode="3" horiz-adv-x="1726" d="M102 760q0 158 59.5 296t163 241.5t241.5 163t296 59.5t296 -59.5t241.5 -163t163 -241.5t59.5 -296t-59.5 -296t-163 -241.5t-241.5 -163t-296 -59.5t-296 59.5t-241.5 163t-163 241.5t-59.5 296zM444 1118q0 -41 28 -72.5t75 -31.5q49 0 77.5 33.5t28.5 74.5 q-2 41 -29.5 72t-74.5 31t-76 -33t-29 -74zM481 381h111h16v569h-127v-569zM797 381h127v330q0 6 9 24.5t26.5 37t40 33.5t51.5 15q51 0 89 -26.5t38 -83.5v-330h127v379q0 72 -12.5 110.5t-37 56t-60.5 20.5t-81 3q-37 0 -62.5 -9t-46 -22.5t-39 -30t-42.5 -30.5v92h-127 v-532v-37z" />
<glyph unicode="4" horiz-adv-x="1726" d="M102 760q0 158 59.5 296t163 241.5t241.5 164t296 60.5t296 -60.5t241.5 -164t163 -241.5t59.5 -296t-59.5 -296t-163 -240.5t-241.5 -163t-296 -60.5t-296 60.5t-241.5 163t-163 240.5t-59.5 296zM512 825q0 -80 31.5 -138t87.5 -81q12 -6 23.5 -1t15.5 20l10 45 q4 12 2 19t-10 18q-35 41 -35 104q0 47 17.5 93t51 83t83 59.5t114.5 22.5q102 0 162.5 -55.5t60.5 -149.5q0 -61 -13 -113.5t-35.5 -91t-53.5 -60t-68 -21.5q-45 0 -65 30q-23 31 -14 66q4 20 10 38.5t12 39.5q10 35 18.5 65.5t8.5 54.5q0 43 -22.5 68t-59.5 25 q-49 0 -82 -44t-33 -108q0 -35 6 -58.5t10 -29.5q-2 -10 -12 -53t-21.5 -92.5t-22.5 -94.5t-13 -61q-12 -49 -12 -117l88 -33q35 59 51 113q2 6 6 23.5t9 38t10.5 41t9.5 32.5q20 -25 56 -41t75 -16q68 0 124 28.5t97 81t64.5 124t23.5 155.5q0 59 -24.5 117.5t-70.5 104.5 t-114 75t-151 29q-96 0 -171 -31t-127.5 -81t-80 -113.5t-27.5 -129.5z" />
<glyph unicode="5" horiz-adv-x="1726" d="M102 762q0 156 59.5 295t163 241.5t241.5 163t296 60.5t296 -60.5t241.5 -163t163 -241.5t59.5 -295q0 -158 -59.5 -296t-163 -241.5t-241.5 -164t-296 -60.5t-296 60.5t-241.5 164t-163 241.5t-59.5 296zM344 762q0 -41 15.5 -75t41 -60.5t60.5 -41t74 -14.5t73.5 14.5 t60 41t41 60.5t15.5 75q0 39 -15.5 73.5t-41 60.5t-60.5 40t-73 14q-39 0 -74 -14t-60.5 -40t-41 -60.5t-15.5 -73.5zM979 762q0 -41 14.5 -75t40 -60.5t60 -41t73.5 -14.5q80 0 135.5 55.5t55.5 135.5q0 39 -14.5 73.5t-41 60.5t-61.5 40t-74 14t-73.5 -14t-60 -40 t-40 -60.5t-14.5 -73.5z" />
<glyph unicode="6" horiz-adv-x="1726" d="M102 760q0 158 59.5 296t163 241.5t241.5 163t296 59.5t296 -59.5t241.5 -163t163 -241.5t59.5 -296t-59.5 -296t-163 -241.5t-241.5 -163t-296 -59.5t-296 59.5t-241.5 163t-163 241.5t-59.5 296zM535 487q0 -53 35.5 -89t88.5 -36t89 36t36 89q0 51 -35.5 88t-89.5 37 q-53 0 -88.5 -36.5t-35.5 -88.5zM547 766q96 0 160.5 -34t119.5 -89q27 -29 47.5 -67.5t35 -80.5t21.5 -79t7 -62h129q0 94 -46 191.5t-120 174.5t-167 126t-187 49v-129zM547 1028q141 0 254.5 -54t206.5 -145q92 -92 139 -211.5t47 -263.5h111l8 13q0 166 -58.5 310 t-161 250.5t-241.5 168t-305 61.5v-129z" />
<glyph unicode="7" horiz-adv-x="1726" d="M102 760q0 158 59.5 296t163 241.5t241.5 164t296 60.5t296 -60.5t241.5 -164t163 -241.5t59.5 -296t-59.5 -296t-163 -240.5t-241.5 -163t-296 -60.5t-296 60.5t-241.5 163t-163 240.5t-59.5 296zM461 842q0 -10 12 -20.5t27 -12.5q14 -2 30.5 3t32 8t28.5 1t23 -20 q8 -18 12.5 -37t10.5 -35q12 -33 20.5 -66.5t18.5 -68.5q10 -41 22.5 -87t32.5 -85q12 -29 29.5 -49.5t40.5 -30.5q27 -12 61.5 -2t55.5 22q55 33 99 78t81 95q43 57 74.5 115.5t55 109.5t37 90t17.5 57q4 25 3 48.5t-15 43.5q-8 16 -15 25q-23 29 -61.5 33t-71.5 -2 q-12 -2 -38.5 -13.5t-56.5 -33t-57.5 -55t-41.5 -79.5h18q-2 -4 -4 -10t-4 -10q33 2 55.5 -1t34.5 -17q2 -10 3 -20.5t-1 -24.5q-2 -25 -12 -51.5t-25 -51.5q-8 -16 -19 -35.5t-25.5 -32t-32 -14.5t-37.5 21q-6 6 -15 18q-16 41 -20 88t-10 84q-4 29 -9.5 59.5t-15.5 59.5 q-2 8 -6 16.5t-8 18.5q-10 23 -24.5 41t-33.5 22q-23 6 -48 -1t-42 -17q-53 -31 -97 -72t-89 -78v-4q4 -4 3 -7t3 -7q0 -2 -4 -2h-2v-4z" />
<glyph unicode="8" d="M102 762q0 158 60.5 296t164 241.5t241.5 164t296 60.5t296 -60.5t241.5 -164t164 -241.5t60.5 -296t-60.5 -296t-164 -241.5t-241.5 -164t-296 -60.5t-296 60.5t-241.5 164t-164 241.5t-60.5 296zM324 447q0 -15 1 -28t3 -28.5t4 -40.5q0 -66 45 -109.5t110 -43.5 q94 -4 187.5 -5.5t191.5 -1.5q190 0 379 7q66 0 111 44.5t45 110.5q2 25 3 40.5t2 29.5t1 29.5v40.5v40t-1 29t-2 29.5t-3 40.5q0 66 -45 102.5t-111 36.5q-90 4 -179 -2t-181 -6h-19h-18q-92 0 -181 6t-180 2q-66 0 -110.5 -41t-44.5 -106q-2 -25 -4 -40.5t-3 -27.5 t-1 -27.5v-40.5v-40zM420 635v63h190v-63h-63v-381h-64v381h-63zM485 1348l78 -318v-213h101v213l86 318h-99l-37 -164l-36 164h-93zM610 254v63v254h64v-254h63v254h64v-317h-64h-63h-64zM725 924q0 -55 29 -84q31 -31 77 -31q27 0 43.5 7t32.5 24q16 16 18.5 35.5 t2.5 46.5v182q0 23 -2.5 42.5t-18.5 35.5t-32.5 23t-40.5 7q-25 0 -42.5 -7t-33.5 -21q-33 -31 -33 -78v-182zM801 918v192q0 6 8 18q8 7 20 7q14 0 25 -7q4 -4 7 -9t3 -9v-192q0 -12 -10 -23q-8 -8 -25 -8q-14 0 -20 8q-8 8 -8 23zM864 254v63v381h64v-127h63h64v-63v-254 h-64h-63h-64zM928 317h63v191h-63v-191zM991 891q0 -23 10 -41q10 -16 29.5 -27.5t56.5 -11.5t55.5 9t28.5 20q8 12 11 28v353h-64v-297q0 -8 -4 -17q-4 -6 -9 -10t-18 -4q-23 0 -28 10q-4 6 -4 12v306h-64v-330zM1118 254v63v254h191v-190h-127v-64h127v-63h-64h-63h-64z M1182 444h63v64h-63v-64z" />
<glyph unicode="9" horiz-adv-x="1730" d="M104 762q0 158 60.5 296t164 241.5t241.5 164t296 60.5t296 -60.5t241.5 -164t164 -241.5t60.5 -296t-60.5 -296t-164 -241.5t-241.5 -164t-296 -60.5t-296 60.5t-241.5 164t-164 241.5t-60.5 296zM231 1079h64l317 -889h64l198 342l183 -342h63l318 889h63v64h-317v-64 h153l-256 -698l-141 289l190 473h-264v-64h127l-110 -311l-119 375h-215v-64h127l135 -417l-135 -250l-254 667h63v64h-254v-64z" />
<glyph unicode=":" horiz-adv-x="1726" d="M102 762q0 158 60.5 296t164 241.5t241.5 164t296 60.5t296 -60.5t241.5 -164t164 -241.5t60.5 -296t-60.5 -296t-164 -241.5t-241.5 -164t-296 -60.5t-296 60.5t-241.5 164t-164 241.5t-60.5 296zM268 768q0 -123 46 -229.5t126 -186.5t187.5 -126t228.5 -46t228.5 46 t187.5 126t126 186.5t46 229.5q0 121 -46 227.5t-126 186.5t-187.5 126t-228.5 46t-228.5 -46t-187.5 -126t-126 -186.5t-46 -227.5zM365 768v22.5t2 24.5q29 -6 82 -12t122 -6q72 0 153 10t167 39q8 -16 15.5 -33t15.5 -33q-90 -29 -162 -72.5t-125 -93t-90 -95.5t-58 -77 q-57 66 -89.5 149t-32.5 177zM385 909q31 100 99.5 179t164.5 124q8 -10 65.5 -82.5t129.5 -195.5q-74 -23 -144.5 -31t-131 -8t-108.5 5t-75 9zM559 377q14 23 45 64.5t80 89t116.5 90.5t157.5 69q33 -86 55.5 -181t26.5 -198q-43 -16 -89 -26.5t-95 -10.5q-84 0 -160 28 t-137 75zM745 1245q27 6 54.5 10.5t56.5 4.5q90 0 169 -30t142 -83q-51 -63 -109.5 -106.5t-123.5 -71.5q-55 100 -107.5 170.5t-81.5 105.5zM979 881q70 33 135.5 81t122.5 117q47 -59 76.5 -130.5t34.5 -151.5q-94 18 -177 19t-155 -13q-10 20 -18.5 39.5t-18.5 38.5z M1053 713q63 10 135 7t155 -22q-16 -104 -70 -191t-140 -147q-8 96 -29.5 183.5t-50.5 169.5z" />
<glyph unicode=";" d="M102 762q0 158 60.5 296t164 241.5t241.5 164t296 60.5t296 -60.5t241.5 -164t164 -241.5t60.5 -296t-60.5 -296t-164 -241.5t-241.5 -164t-296 -60.5t-296 60.5t-241.5 164t-164 241.5t-60.5 296zM420 535l4 -111q45 10 96 8q43 -2 99.5 -16.5t115.5 -53.5 q78 -66 140.5 -96t109.5 -36.5t82.5 6.5t62.5 36t38.5 52.5t13.5 56.5q2 31 -4 61q-10 -14 -37 -28.5t-62 -19.5t-76.5 2t-84.5 38q-45 31 -96.5 55.5t-96.5 42.5q-53 23 -107 39l170 191q174 190 254 293.5t88 142.5q4 18 -5 24.5t-35.5 5.5t-70.5 -8.5t-108 -15.5 q-66 -8 -114.5 -1t-83.5 17.5t-56.5 18.5t-33.5 6q-10 -4 -23.5 -18.5t-23 -36t-13.5 -47t4 -47.5q8 -25 51.5 -34t92.5 -13q57 -4 127 2q-10 -16 -46 -62.5t-82 -104t-96.5 -113.5t-87.5 -93q-39 -37 -59.5 -64.5t-30.5 -44.5q-12 -23 -16 -34z" />
<glyph unicode="&#x3c;" d="M102 762q0 158 60.5 296t164 241.5t241.5 164t296 60.5t296 -60.5t241.5 -164t164 -241.5t60.5 -296t-60.5 -296t-164 -241.5t-241.5 -164t-296 -60.5t-296 60.5t-241.5 164t-164 241.5t-60.5 296zM293 623q8 -59 37 -107q25 -41 74 -72.5t137 -31.5q86 0 137 27.5 t78.5 65.5t36 75.5t8.5 56.5v412q4 18 12 32q8 12 23.5 22.5t40.5 10.5q49 0 59 -33.5t10 -128.5h172v127q-6 53 -35 95q-25 35 -75 65.5t-142 30.5q-72 0 -121 -20.5t-78.5 -52.5t-43 -69.5t-13.5 -72.5v-432q2 -10 -4 -19q-4 -6 -17.5 -11t-39.5 -5q-18 0 -28.5 1 t-14.5 22.5t-5 69.5t-1 144h-207v-202zM928 602q6 -55 35 -96q25 -35 75 -64.5t142 -29.5q72 0 121 20.5t78.5 52t43 69.5t13.5 73v135h-191v-129q0 -23 -6 -41q-4 -16 -17.5 -27.5t-37.5 -11.5q-33 0 -45.5 23.5t-14.5 57.5t2 68.5t4 59.5h-202v-160z" />
<glyph unicode="=" d="M102 762q0 158 60.5 296t164 241.5t241.5 164t296 60.5t296 -60.5t241.5 -164t164 -241.5t60.5 -296t-60.5 -296t-164 -241.5t-241.5 -164t-296 -60.5t-296 60.5t-241.5 164t-164 241.5t-60.5 296zM229 762q0 -131 50.5 -247t136.5 -202t201.5 -136t246.5 -50t247 50 t202 136t136 202t50 247t-50 246.5t-136 201.5t-202 136.5t-247 50.5t-246.5 -50.5t-201.5 -136.5t-136.5 -201.5t-50.5 -246.5zM358 793q6 100 48.5 187t110 151.5t156.5 101.5t191 37q104 0 197.5 -40t162 -108.5t108.5 -161t40 -196.5q-14 -63 -43 -116.5t-64.5 -79 t-74.5 -13.5t-72 80q-47 94 -123.5 156.5t-146.5 97.5q-84 41 -174 63q49 -74 63 -143q6 -31 5 -62.5t-14 -62.5t-42 -59.5t-76 -53.5q-78 -39 -126 -22.5t-75.5 59.5t-38 96.5t-12.5 88.5z" />
<glyph unicode="&#x3e;" d="M102 762q0 158 60.5 296t164 241.5t241.5 164t296 60.5t296 -60.5t241.5 -164t164 -241.5t60.5 -296t-60.5 -296t-164 -241.5t-241.5 -164t-296 -60.5t-296 60.5t-241.5 164t-164 241.5t-60.5 296zM229 571h254v635h-63v-254h-191v-381zM293 635v254h127v-254h-127z M610 571h64v445h-64v-445zM610 1079h64v127h-64v-127zM737 444h318v572h-254v-381h190v-127h-254v-64zM864 698v254h127v-254h-127zM1118 444h318v572h-254v-381h190v-127h-254v-64zM1245 698v254h127v-254h-127z" />
<glyph unicode="?" d="M102 762q0 158 60.5 296t164 241.5t241.5 164t296 60.5t296 -60.5t241.5 -164t164 -241.5t60.5 -296t-60.5 -296t-164 -241.5t-241.5 -164t-296 -60.5t-296 60.5t-241.5 164t-164 241.5t-60.5 296zM332 410h311q119 0 187.5 63.5t68.5 163.5q0 49 -18.5 83t-40.5 56 q-25 25 -58 39q20 12 39 35q16 18 28.5 48t12.5 77q0 72 -40 109.5t-87 56.5q-55 23 -127 24h-276v-755zM453 528v217h151q43 0 80 -10q31 -10 56.5 -31.5t25.5 -66.5t-23.5 -67.5t-53.5 -32t-55.5 -9.5h-29.5h-151zM453 862v185h151q37 -2 66 -11q25 -8 45 -26.5t20 -53.5 t-16.5 -54t-38 -28.5t-43 -10.5t-33.5 -1h-151zM930 707q0 -55 13 -110.5t45 -100.5t86 -73t136 -28t131.5 30t73.5 67q29 41 39 96h-125q-4 -25 -18 -45q-12 -16 -37 -29.5t-70 -13.5t-74.5 20.5t-46.5 44.5q-20 29 -30 66h399q8 47 2 94t-10 63q-2 8 -13.5 40t-37 66 t-70.5 60.5t-115 26.5t-122 -22.5t-86.5 -59.5t-52 -87t-17.5 -105zM1010 1022h370v68h-370v-68zM1065 754q6 33 22 59q14 23 40 41t67 18t66.5 -18t39.5 -41q16 -27 23 -59h-258z" />
<glyph unicode="@" d="M102 762q0 158 60.5 296t164 241.5t241.5 164t296 60.5t296 -60.5t241.5 -164t164 -241.5t60.5 -296t-60.5 -296t-164 -241.5t-241.5 -164t-296 -60.5t-296 60.5t-241.5 164t-164 241.5t-60.5 296zM483 629q0 -111 58.5 -179.5t169.5 -68.5h323q55 0 104.5 18.5t87.5 51 t60.5 77.5t22.5 101v202l-19 17l-16 14l-14 8q-6 4 -19.5 6.5t-29 4.5t-30 6t-22.5 10q-10 10 -14 27.5t-8 42.5q-6 47 -11.5 61t-13.5 31q-14 29 -36.5 55.5t-50.5 47t-57.5 32.5t-54.5 12h-202q-111 0 -169.5 -70.5t-58.5 -181.5v-325zM635 952q0 20 21.5 42t41.5 22h191 q23 0 43 -21.5t20 -42.5q0 -23 -20.5 -43t-42.5 -20h-191q-20 0 -41.5 20.5t-21.5 42.5zM676 635q0 20 14.5 41.5t36.5 21.5h297q23 0 37 -21.5t14 -41.5t-14 -42t-37 -22h-297q-23 0 -37 21.5t-14 42.5z" />
<glyph unicode="A" horiz-adv-x="1726" d="M102 190v1139q0 39 14.5 74t40 60.5t60.5 41t74 15.5h1143q39 0 73.5 -15.5t60 -41t40 -60.5t14.5 -74v-1139q0 -39 -14.5 -73.5t-40 -60t-60 -41t-73.5 -15.5h-1143q-39 0 -74 15.5t-60.5 41t-40 60.5t-14.5 73zM354 760q0 -39 15.5 -74t41 -60.5t60.5 -40t74 -14.5 t73.5 14.5t60.5 40t41 60.5t15 74t-15 73.5t-41 61.5t-60.5 41t-73.5 14t-74 -14t-60.5 -41t-41 -61.5t-15.5 -73.5zM989 760q0 -39 14.5 -74t40 -60.5t60.5 -40t74 -14.5t73.5 14.5t61 40t41 60.5t14.5 74q0 80 -55.5 135t-134.5 55q-39 0 -74 -14t-60.5 -41t-40 -61.5 t-14.5 -73.5z" />
<glyph unicode="B" d="M102 190v1143q0 39 15.5 74t41 60.5t60.5 41t74 15.5h1143q39 0 73.5 -15.5t60 -41t41 -60.5t15.5 -74v-1143q0 -39 -15.5 -73.5t-41 -60t-60 -41t-73.5 -15.5h-1143q-39 0 -74 15.5t-60.5 41t-41 60.5t-15.5 73zM356 610q0 -68 22.5 -132t62.5 -114.5t96.5 -80 t124.5 -29.5h405q68 0 124 29.5t96 80t62.5 115t22.5 131.5v254l-4 19l-8 18l-14 12q-6 6 -23.5 8.5t-36 5.5t-37 7t-28.5 14q-14 12 -18.5 35t-8.5 53q-4 31 -7 48.5t-7 27.5t-8.5 17.5t-8.5 17.5q-16 37 -46 70.5t-63.5 59.5t-70.5 41t-68 15h-253q-68 0 -124.5 -23.5 t-96.5 -66.5t-62.5 -101.5t-22.5 -125.5v-406zM618 602q0 12 5.5 29.5t13.5 32t20.5 24.5t24.5 10h373q27 0 44 -34.5t17 -61.5q0 -12 -5 -28.5t-13 -31t-19.5 -24.5t-23.5 -10h-373q-12 0 -24.5 10t-20.5 24.5t-13.5 31t-5.5 28.5zM618 952q0 27 18.5 45.5t45.5 18.5h182 q27 0 45.5 -18.5t18.5 -45.5t-18.5 -45t-45.5 -18h-182q-27 0 -45.5 18.5t-18.5 44.5z" />
<glyph unicode="C" horiz-adv-x="1726" d="M102 190v1141q0 39 14.5 74t40 60.5t60.5 41t74 15.5h1141q39 0 73.5 -15.5t61 -41t41 -60.5t14.5 -74v-1141q0 -39 -14.5 -73.5t-41 -60t-61.5 -41t-73 -15.5h-1141q-39 0 -74 15.5t-60.5 41t-40 60.5t-14.5 73zM545 668q0 -72 28 -140q14 -33 34 -60.5t42 -51.5 q49 -51 115 -78q61 -27 139 -27h41q76 0 137 27q70 33 115 78q47 46 76 112q16 33 22 68t6 72q0 70 -28 137q-14 33 -32.5 61.5t-43.5 51.5q-51 49 -115 77q-68 29 -137 29h-45q-29 0 -49.5 -19.5t-20.5 -48.5t20.5 -49t49.5 -20h45q41 0 86 -17q41 -18 70 -47 q31 -33 47 -71q18 -41 18 -86q0 -47 -18 -86q-16 -41 -47 -72q-16 -16 -32.5 -28.5t-37.5 -20.5q-23 -10 -43 -16.5t-43 -6.5h-41q-23 0 -44 6.5t-42 16.5q-20 8 -37.5 22.5t-34.5 30.5q-16 14 -26 31.5t-21 38.5q-16 35 -16 86v438q0 29 -20.5 47t-49.5 18t-48 -19t-19 -48 v-436z" />
<glyph unicode="D" d="M102 190v1143q0 39 15.5 74t41 60.5t60.5 41t74 15.5h1143q39 0 73.5 -15.5t60 -41t41 -60.5t15.5 -74v-1143q0 -39 -15.5 -73.5t-41 -60t-60 -41t-73.5 -15.5h-1143q-39 0 -74 15.5t-60.5 41t-41 60.5t-15.5 73zM285 1085l215 -188l331 213l-217 184zM299 684l307 -199 l217 174l-321 207zM483 414l381 -248v463l-241 -203l-140 92v-104zM887 1110l334 -215l221 192l-336 207zM928 629l2 -461l315 248l-4 94l-123 -86zM946 664l170 -172l305 196l-200 172z" />
<glyph unicode="E" horiz-adv-x="1726" d="M102 190v1139q0 39 14.5 74t41 60.5t60.5 41t75 15.5h1139q39 0 73.5 -15.5t60 -41t41 -60.5t15.5 -74v-1139q0 -41 -15.5 -74.5t-41 -60t-60.5 -41t-73 -14.5h-1139q-80 0 -135.5 55.5t-55.5 134.5zM403 727q0 -29 3.5 -47t11.5 -47q2 2 32.5 27.5t75.5 61.5t96.5 78 t95.5 77.5t73.5 60.5t31.5 27q-4 2 -29.5 25.5t-56 51t-55.5 51t-27 25.5q-113 -59 -182.5 -161.5t-69.5 -229.5zM434 543q27 -68 70 -128.5t104 -99.5v381q-6 -6 -32.5 -29.5t-57.5 -51t-56.5 -49t-27.5 -23.5zM670 334q0 -31 2 -31q39 -29 82 -39t77 -12h21l61 4 q57 6 114.5 25.5t108 51.5t91.5 76t65 97h-620q0 -4 -1 -36t-1 -68.5v-67.5zM717 1155q2 -4 27.5 -26.5t61.5 -56.5t78 -72.5t77.5 -72.5t61.5 -57.5t30 -27.5v303q-41 33 -92.5 45t-98.5 12q-76 0 -145 -47zM1114 569h191q12 37 25 81t13 81q0 57 -17 114.5t-48 109 t-73 93.5t-91 72v-551z" />
<glyph unicode="F" horiz-adv-x="1726" d="M102 190v1139q0 39 14.5 74t41 60.5t60.5 41t75 15.5h1139q39 0 73.5 -15.5t60 -41t41 -60.5t15.5 -74v-1139q0 -41 -15.5 -74.5t-41 -60t-60.5 -41t-73 -14.5h-1139q-80 0 -135.5 55.5t-55.5 134.5zM672 762h63v-445h189v445h131l16 188h-147v64q0 27 15 45t28 18h84 v133h-133q-57 0 -93.5 -19.5t-55.5 -47t-26.5 -61t-7.5 -60.5v-72h-63v-188z" />
<glyph unicode="G" horiz-adv-x="1726" d="M102 190v1139q0 39 14.5 74t41 60.5t60.5 41t75 15.5h1139q39 0 73.5 -15.5t60 -41t41 -60.5t15.5 -74v-1139q0 -41 -15.5 -74.5t-41 -60t-60.5 -41t-73 -14.5h-1139q-80 0 -135.5 55.5t-55.5 134.5zM418 489q0 -37 20.5 -68.5t57 -55t87 -38t109.5 -14.5q66 0 116 17.5 t84 45t50 63.5t16 73q0 61 -21.5 101t-74.5 77q-23 16 -41 35.5t-18 30.5q0 14 6 24.5t37 32.5q35 27 54.5 71t23.5 89v16q0 26 -4 49q-7 31 -15 53.5t-17 36t-11 13.5h57l117 65h-330q-45 0 -90 -19.5t-80 -52t-57.5 -72.5t-22.5 -83t16.5 -81t44 -65.5t66.5 -44t82 -16.5 q-2 -8 -3 -14t-1 -15q0 -14 3 -29.5t13 -15.5h-10q-53 0 -101.5 -17t-84 -46t-57 -67t-21.5 -79zM555 518q0 20 12.5 41t34 38t48 27.5t57.5 10.5h2q6 0 19 -5t26 -9q14 -7 30 -13q29 -18 42.5 -40.5t17.5 -43.5q4 -12 4 -18q0 -102 -154 -103q-59 0 -99 34t-40 81zM600 961 q-2 12 -2 23q0 45 27 75q10 12 22 15t29 3h2q41 0 75.5 -38t43.5 -93q1 -10 1 -20q0 -51 -28 -78q-18 -25 -51 -25q-41 0 -76 40t-43 98zM987 889h127v-127h64v127h127v61h-127v127h-64v-127h-127v-61z" />
<glyph unicode="H" d="M102 190v1143q0 39 15.5 74t41 60.5t60.5 41t74 15.5h1143q39 0 73.5 -15.5t60 -41t41 -60.5t15.5 -74v-1143q0 -39 -15.5 -73.5t-41 -60t-60 -41t-73.5 -15.5h-1143q-39 0 -74 15.5t-60.5 41t-41 60.5t-15.5 73zM420 1006q0 -72 25.5 -136.5t74.5 -116t120 -85 t161 -45.5v-115h-64v-88q-29 4 -61.5 14t-64 28.5t-57.5 47.5t-40 72l-61 -21q16 -49 50 -85t73.5 -60.5t81.5 -39t79 -20.5l-63 -102h-64v-127h64v63h63v-63h127v190h64v-127v-63h127v63h63v-63h64v127h-64l-63 254h-64v115q90 12 161 45.5t120 85t74.5 116t25.5 136.5 q0 37 -9 62.5t-27.5 47t-44 41t-58.5 45.5q-8 47 -16.5 89t-18.5 77q-10 39 -22 76q-68 -70 -130.5 -91.5t-115.5 -27.5q-27 -4 -48.5 -5t-41.5 1q-29 0 -62 3t-69.5 14.5t-75.5 35t-80 66.5q-16 -41 -29 -86q-12 -39 -23.5 -89.5t-15.5 -101.5q-31 -41 -48 -73.5t-17 -83.5 zM537 950q0 53 22.5 101.5t66.5 85.5t108.5 58.5t150.5 21.5t151.5 -21.5t109.5 -58.5t66.5 -85t22.5 -102q0 -104 -85 -178t-247 -74h-35q-164 0 -247.5 74t-83.5 178zM664 973q0 -47 25.5 -80t62.5 -33t62.5 33t25.5 80t-26 79.5t-62 32.5q-37 0 -62.5 -32.5t-25.5 -79.5z M737 190v127h64v-127h-64zM862 1329h4l-2 2zM934 973q0 -47 25.5 -80t62.5 -33t62.5 33t25.5 80t-25.5 79.5t-62.5 32.5t-62.5 -32.5t-25.5 -79.5zM991 190v127h64v-63v-64h-64z" />
<glyph unicode="I" d="M102 190v1143q0 39 15.5 74t41 60.5t60.5 41t74 15.5h1143q39 0 73.5 -15.5t60 -41t41 -60.5t15.5 -74v-1143q0 -39 -15.5 -73.5t-41 -60t-60 -41t-73.5 -15.5h-1143q-39 0 -74 15.5t-60.5 41t-41 60.5t-15.5 73zM268 768q0 -123 46 -229.5t126 -186.5t187.5 -126 t228.5 -46t228.5 46t187.5 126t126 186.5t46 229.5q0 121 -46 227.5t-126 186.5t-187.5 126t-228.5 46t-228.5 -46t-187.5 -126t-126 -186.5t-46 -227.5zM365 768v22.5t2 24.5q29 -6 82 -12t122 -6q72 0 153 10t167 39q8 -16 14.5 -32t14.5 -32q-90 -29 -161 -73.5t-124 -94 t-90 -95.5t-58 -77q-57 66 -89.5 149t-32.5 177zM385 909q31 100 99.5 179t164.5 124q8 -10 65.5 -82.5t129.5 -195.5q-74 -23 -144.5 -31t-131 -8t-108.5 5t-75 9zM559 377q14 23 44 65.5t79 90t116.5 91.5t157.5 72q33 -88 55.5 -184t28.5 -201q-43 -16 -89 -26.5 t-95 -10.5q-86 0 -161 28t-136 75zM745 1245q27 6 54.5 10.5t56.5 4.5q90 0 169 -30t142 -83q-51 -63 -109.5 -106.5t-123.5 -71.5q-55 100 -107.5 170.5t-81.5 105.5zM979 881q70 33 135.5 81t122.5 117q47 -57 75.5 -127.5t33.5 -148.5q-94 18 -176.5 18t-155.5 -14 q-8 18 -16.5 37t-18.5 37zM1051 717q55 8 114 8h23q72 -2 155 -18q-14 -109 -69 -198t-141 -149q-8 98 -30.5 186.5t-51.5 170.5z" />
<glyph unicode="J" d="M102 190v1143q0 39 15.5 74t41 60.5t60.5 41t74 15.5h1143q39 0 73.5 -15.5t60 -41t41 -60.5t15.5 -74v-1143q0 -39 -15.5 -73.5t-41 -60t-60 -41t-73.5 -15.5h-1143q-39 0 -74 15.5t-60.5 41t-41 60.5t-15.5 73zM293 559q8 -59 37 -106q25 -41 74 -73t137 -32 q86 0 137 27.5t78.5 65.5t36 76t8.5 56v412q4 18 12 33q8 12 23.5 22.5t40.5 10.5q49 0 59 -34t10 -128h172v127q-6 53 -35 94q-25 35 -75 65.5t-142 30.5q-72 0 -121 -20.5t-78.5 -52t-43 -69.5t-13.5 -73v-432q2 -10 -4 -18q-4 -6 -17.5 -11.5t-39.5 -5.5q-18 0 -28.5 1 t-14.5 22.5t-5 70t-1 144.5h-207v-203zM928 539q6 -55 35 -97q25 -35 74.5 -64.5t142.5 -29.5q72 0 121 20.5t78.5 52.5t43 69.5t13.5 72.5v135h-191v-129q0 -23 -6 -41q-4 -16 -17.5 -27.5t-37.5 -11.5q-33 0 -45.5 24t-14.5 57q-1 12 -1 23q0 23 3 46q4 35 4 59h-202v-159 z" />
<glyph unicode="K" d="M102 190v1143q0 39 15.5 74t41 60.5t60.5 41t74 15.5h1143q39 0 73.5 -15.5t60 -41t41 -60.5t15.5 -74v-1143q0 -39 -15.5 -73.5t-41 -60t-60 -41t-73.5 -15.5h-1143q-39 0 -74 15.5t-60.5 41t-41 60.5t-15.5 73zM229 762q0 -131 50.5 -247t136.5 -202t201.5 -136 t246.5 -50t247 50t202 136t136 202t50 247t-50 246.5t-136 201.5t-202 136.5t-247 50.5t-246.5 -50.5t-201.5 -136.5t-136.5 -201.5t-50.5 -246.5zM358 793q6 100 48.5 187t110 151.5t156.5 101.5t191 37q104 0 197.5 -40t162 -108.5t108.5 -161t40 -196.5 q-14 -63 -43 -116.5t-65 -79.5q-24 -17 -49 -17q-12 0 -25 4q-39 12 -72 80q-47 94 -123.5 156.5t-146.5 97.5q-84 41 -174 63q49 -74 63 -143q6 -31 5 -62.5t-14 -62.5t-42 -59.5t-76 -53.5q-55 -27 -95 -27q-17 0 -31 4q-48 16 -75.5 59.5t-38 97t-12.5 88.5z" />
<glyph unicode="L" horiz-adv-x="1726" d="M102 190v1139q0 39 14.5 74t41 60.5t60.5 41t75 15.5h1139q39 0 73.5 -15.5t60 -41t41 -60.5t15.5 -74v-1139q0 -41 -15.5 -74.5t-41 -60t-60.5 -41t-73 -14.5h-1139q-80 0 -135.5 55.5t-55.5 134.5zM442 1118q0 -41 29 -73.5t76 -32.5q49 0 76.5 33.5t27.5 74.5 t-27.5 73t-74.5 32t-77 -33t-30 -74zM483 381h109h16v569h-125v-569zM799 381h125v330q0 6 10 24.5t26.5 37t40 33.5t50.5 15q51 0 90 -26.5t39 -83.5v-330h127v379q0 72 -14.5 109.5t-40 55t-63.5 19.5t-83 2q-37 0 -61.5 -8t-43 -21.5t-36 -29t-41.5 -29.5v92h-125v-532 v-37z" />
<glyph unicode="M" d="M102 190v1143q0 39 15.5 74t41 60.5t60.5 41t74 15.5h1143q39 0 73.5 -15.5t60 -41t41 -60.5t15.5 -74v-1143q0 -39 -15.5 -73.5t-41 -60t-60 -41t-73.5 -15.5h-1143q-39 0 -74 15.5t-60.5 41t-41 60.5t-15.5 73zM229 444h254v635h-63v-254h-191v-381zM293 508v254h127 v-254h-127zM610 444h64v445h-64v-445zM610 952h64v127h-64v-127zM737 317h318v572h-254v-381h190v-127h-254v-64zM864 571v254h127v-254h-127zM1118 317h318v572h-254v-381h190v-127h-254v-64zM1245 571v254h127v-254h-127z" />
<glyph unicode="N" d="M102 190v1143q0 39 15.5 74t41 60.5t60.5 41t74 15.5h1143q39 0 73.5 -15.5t60 -41t41 -60.5t15.5 -74v-1143q0 -39 -15.5 -73.5t-41 -60t-60 -41t-73.5 -15.5h-1143q-39 0 -74 15.5t-60.5 41t-41 60.5t-15.5 73zM297 397h309q119 0 187.5 62.5t68.5 163.5 q0 49 -18.5 82.5t-40.5 56.5q-25 25 -58 39q23 12 41 35q16 18 28.5 48.5t12.5 76.5q0 72 -39.5 110.5t-87.5 56.5q-55 23 -127 25h-276v-756zM416 516v215h151q43 0 80 -10q31 -10 56.5 -31.5t25.5 -66.5t-23.5 -66.5t-52 -31t-54.5 -9.5h-30h-153zM416 850v184h151 q37 -2 66 -10q25 -10 45 -28.5t20 -53.5t-16 -53.5t-37.5 -27.5t-43 -10t-32.5 -1h-153zM918 694q0 -55 13 -111.5t45 -100.5t86 -72.5t136 -28.5t130 29.5t75 66.5q31 41 41 96h-127q-4 -25 -19 -45q-12 -16 -36.5 -29.5t-69.5 -13.5t-75 20.5t-46 45.5q-20 29 -31 67h400 q6 28 6 55q0 19 -3 39q-7 48 -11 64q-2 8 -13.5 39t-37 64.5t-70.5 60.5t-115 27t-122 -22.5t-87 -59.5t-52 -86t-17 -105zM997 1010h371v65h-371v-65zM1053 741q6 33 22 58q14 23 40 41t67 18t66.5 -18.5t39.5 -40.5q16 -25 23 -58h-258z" />
<glyph unicode="O" d="M102 190v1143q0 39 15.5 74t41 60.5t60.5 41t74 15.5h172q-98 -92 -151.5 -213t-53.5 -244q0 -131 62.5 -248t173.5 -205l-43 -323l292 184q78 -29 162 -43t176 -14q74 0 151 9t148.5 27.5t134 45t109.5 61.5v-371q0 -39 -15.5 -73.5t-41 -60t-60 -41t-73.5 -15.5h-1143 q-39 0 -74 15.5t-60.5 41t-41 60.5t-15.5 73zM602 1057q0 78 38 147.5t104.5 120.5t154.5 81t191 30q100 0 189 -30t155.5 -81t104.5 -120.5t38 -147.5t-38 -146.5t-104.5 -120t-155.5 -81t-189 -29.5q-102 0 -190.5 29.5t-155 81t-104.5 120t-38 146.5z" />
<glyph unicode="P" horiz-adv-x="1726" d="M102 190v1139q0 39 14.5 74t41 60.5t60.5 41t75 15.5h1139q39 0 73.5 -15.5t60 -41t41 -60.5t15.5 -74v-1139q0 -41 -15.5 -74.5t-41 -60t-60.5 -41t-73 -14.5h-1139q-80 0 -135.5 55.5t-55.5 134.5zM510 825q0 -80 31.5 -138t87.5 -81q31 -14 39 19l12 45q4 12 1 19 t-11 18q-35 45 -35 104q0 47 17.5 93t51 83t83 59.5t114.5 22.5q102 0 162.5 -55.5t60.5 -149.5q0 -61 -12 -113.5t-34.5 -91t-53.5 -60t-68 -21.5q-43 0 -67 28q-16 21 -16 45q0 11 4 23q4 20 10 38.5t10 39.5q10 35 19.5 65.5t9.5 54.5q0 43 -22.5 68t-61.5 25 q-47 0 -81 -44t-34 -108q0 -35 6 -58.5t10 -31.5q-2 -10 -12 -52t-21.5 -91.5t-21.5 -94.5t-14 -61q-10 -45 -10 -99v-18l86 -33q35 59 51 113q2 6 7 23.5t10 38t9 41t9 32.5q20 -25 56 -41t77 -16q68 0 124 28.5t97 81t63.5 124t22.5 155.5q0 59 -24.5 117.5t-70.5 104.5 t-114 75t-152 29q-96 0 -170.5 -31t-127 -81t-80 -113.5t-27.5 -129.5z" />
<glyph unicode="Q" horiz-adv-x="1724" d="M102 190v1143q0 39 15.5 74t41 60.5t60.5 41t74 15.5h1143q39 0 73.5 -15.5t60 -41t41 -60.5t15.5 -74v-1143q0 -39 -15.5 -73.5t-41 -60t-60 -41t-73.5 -15.5h-1143q-39 0 -74 15.5t-60.5 41t-41 60.5t-15.5 73zM424 733q0 -154 92 -313q92 -164 186 -164q29 0 84 23 q25 10 47.5 15t40.5 5q41 0 95 -20q55 -20 88 -21q78 0 162 123q27 41 46 80t29 78q-55 14 -98 77q-43 61 -43 140q0 70 41 129q20 33 72 73q-16 20 -32.5 37t-33.5 27q-59 41 -133 41q-45 0 -109 -23q-59 -20 -90 -20q-23 0 -86 18q-66 18 -110 19q-109 0 -178 -90 q-70 -88 -70 -234zM852 1085q23 2 38 4.5t25 6.5q35 12 68 45q39 39 57 86q18 45 19 86v12q0 4 -1 7t-1 7q-109 -26 -158 -94q-47 -70 -47 -160z" />
<glyph unicode="R" horiz-adv-x="1726" d="M102 190v1139q0 39 14.5 74t41 60.5t60.5 41t75 15.5h1139q39 0 73.5 -15.5t60 -41t41 -60.5t15.5 -74v-1139q0 -41 -15.5 -74.5t-41 -60t-60.5 -41t-73 -14.5h-1139q-80 0 -135.5 55.5t-55.5 134.5zM528 492q0 -53 37 -90t88 -37q53 0 89 36.5t36 90.5q0 51 -35.5 87.5 t-89.5 36.5q-51 0 -88 -36.5t-37 -87.5zM545 768q96 0 159.5 -26.5t118.5 -82.5q27 -29 48.5 -66.5t35 -76.5t20.5 -74.5t7 -58.5h129q0 94 -45 186.5t-119 166t-167 118.5t-187 45v-131zM545 1032q141 0 254.5 -48t204.5 -138q92 -92 139 -207t47 -256h115h8 q0 166 -58.5 308.5t-161 246.5t-242.5 163.5t-306 59.5v-129z" />
<glyph unicode="S" horiz-adv-x="1726" d="M102 190v1139q0 39 14.5 74t41 60.5t60.5 41t75 15.5h1139q39 0 73.5 -15.5t60 -41t41 -60.5t15.5 -74v-1139q0 -41 -15.5 -74.5t-41 -60t-60.5 -41t-73 -14.5h-1139q-80 0 -135.5 55.5t-55.5 134.5zM391 977q0 -37 10.5 -71t26.5 -62q-4 -23 -7 -44.5t-3 -45.5 q0 -92 34.5 -173t96 -142.5t143.5 -96.5t174 -35q47 0 82 8q55 -30 123 -30q53 0 100.5 20.5t83 55t56 81.5t20.5 101q0 63 -28 116q6 23 8 46.5t2 48.5q0 92 -35 174t-95.5 143.5t-142.5 96t-174 34.5q-39 0 -75 -6q-66 39 -140 39q-53 0 -101 -20.5t-83 -55.5t-55.5 -82 t-20.5 -100zM604 612q0 25 19 43q20 16 47 17q25 0 39 -15q14 -10 26 -36q14 -31 25 -48q18 -18 39 -28q27 -10 63 -10q55 0 90 22q35 25 35 55q0 27 -18 43q-16 16 -47 27q-16 4 -37 9t-45 11q-35 8 -65 16.5t-54 18.5q-51 23 -76 58q-29 35 -29 88q0 51 31 92q27 37 86 59 q53 20 131 21q63 0 105 -15q45 -12 73 -36q29 -18 45 -48q12 -29 13 -51q0 -25 -19 -45q-18 -18 -45 -18t-39 12t-26 35q-14 31 -41 51q-23 16 -74 16q-47 0 -78 -18q-27 -18 -26 -43q0 -16 8 -27q8 -12 26 -20q10 -4 18.5 -7t18.5 -7q10 -2 24.5 -6.5t37.5 -8.5 q27 -6 51.5 -12t46.5 -14q43 -10 76 -35q35 -23 51 -53q18 -31 18 -78q0 -57 -30 -101q-33 -45 -92 -69q-59 -25 -140 -25q-96 0 -159 35q-47 27 -74 65q-29 37 -29 80z" />
<glyph unicode="T" horiz-adv-x="1726" d="M102 190v1141q0 39 15.5 74t41 60.5t60.5 40t74 14.5h1141q39 0 73.5 -14.5t60 -40t40 -60.5t14.5 -74v-1141q0 -39 -14.5 -73.5t-40 -60t-60 -41t-73.5 -15.5h-1141q-39 0 -74 15.5t-60.5 41t-41 60.5t-15.5 73zM336 379q66 -45 145 -72q68 -23 160 -32q21 -2 42 -2 q74 0 159 24q106 31 180 79t122 97t71.5 91t31.5 59q8 18 21.5 50t26 73.5t19.5 93.5q4 33 4 66q0 20 -1 40q31 25 53 47q20 20 38.5 40t23.5 32l-46 -16q-18 -6 -40.5 -12.5t-40.5 -8.5q25 16 45 39q16 16 31.5 39.5t19.5 46.5q-25 -16 -49 -27q-23 -10 -46.5 -18t-45.5 -8 q-33 29 -72 47q-35 17 -80 23q-10 1 -20 1q-36 0 -78 -18q-55 -23 -84 -58.5t-42.5 -73.5t-14.5 -73t1 -55q-72 0 -149 25q-66 20 -149 68t-162 142q-25 -47 -29 -98q-1 -8 -1 -16q0 -36 14 -79q18 -52 81 -104q-8 -4 -20 -2q-10 0 -28.5 5.5t-47.5 19.5v-9q0 -42 16 -79 q16 -35 51 -73t105 -58q-6 -4 -19 -8q-10 -4 -28.5 -4t-44.5 4q12 -39 37 -72q23 -29 61.5 -53.5t104.5 -30.5q-39 -33 -89 -55q-43 -20 -102 -34q-34 -8 -73 -7q-30 0 -62 4z" />
<glyph unicode="U" d="M102 190v1143q0 39 15.5 74t41 60.5t60.5 41t74 15.5h1143q39 0 73.5 -15.5t60 -41t41 -60.5t15.5 -74v-1143q0 -39 -15.5 -73.5t-41 -60t-60 -41t-73.5 -15.5h-1143q-39 0 -74 15.5t-60.5 41t-41 60.5t-15.5 73zM547 889h127v-424q2 -59 35 -107q29 -41 91 -72.5 t179 -31.5q41 6 78 18q33 10 66.5 26.5t58.5 39.5v170q-23 -16 -45 -27q-20 -10 -47 -18t-54 -8q-74 0 -91 20.5t-17 54.5v357l254 2v190h-254v254h-160q-6 -57 -31 -110q-23 -47 -66.5 -95.5t-123.5 -76.5v-162z" />
<glyph unicode="V" horiz-adv-x="1726" d="M102 190v1139q0 39 14.5 74t41 60.5t60.5 41t75 15.5h1139q39 0 73.5 -15.5t60 -41t41 -60.5t15.5 -74v-1139q0 -41 -15.5 -74.5t-41 -60t-60.5 -41t-73 -14.5h-1139q-80 0 -135.5 55.5t-55.5 134.5zM481 860q0 -10 12.5 -20.5t26.5 -12.5t30.5 3.5t32 8.5t29 1t23.5 -21 q8 -18 12 -36.5t10 -34.5q10 -33 19.5 -67t19.5 -69q10 -41 21.5 -87t34.5 -85q12 -29 29.5 -49t39.5 -31q14 -6 31 -6q15 0 31 4q35 10 55 23q55 35 99 79t81 93q43 57 75 115.5t55.5 109.5t37 90.5t17.5 57.5q3 17 3 32q0 8 -1 16q-2 23 -15 44q-8 16 -14 24 q-22 29 -62 33q-16 2 -31 2q-22 0 -40 -4q-12 -2 -39 -13t-56.5 -32.5t-57 -55.5t-42.5 -79h19q-2 -4 -4 -10t-5 -11q33 2 55.5 -1t35.5 -17q2 -10 3 -20.5t-1 -24.5q-2 -25 -13.5 -51.5t-25.5 -50.5q-8 -16 -19.5 -36t-26 -32t-31.5 -14t-36 20q-6 6 -14 19 q-16 41 -20.5 88t-10.5 84q-4 29 -9 59.5t-16 58.5q-2 8 -6 16.5t-8 18.5q-10 23 -24.5 41.5t-32.5 22.5q-23 6 -48.5 -1.5t-41.5 -17.5q-53 -31 -96.5 -71.5t-90.5 -77.5v-4q4 -4 3 -7.5t3 -7.5q0 -2 -4 -2h-2v-4z" />
<glyph unicode="W" d="M102 190v1143q0 39 15.5 74t41 60.5t60.5 41t74 15.5h1143q39 0 73.5 -15.5t60 -41t41 -60.5t15.5 -74v-1143q0 -39 -15.5 -73.5t-41 -60t-60 -41t-73.5 -15.5h-1143q-39 0 -74 15.5t-60.5 41t-41 60.5t-15.5 73zM229 1143h64l317 -889h64l198 342l183 -342h63l318 889 h63v63h-317v-63h153l-256 -699l-141 289l190 473h-264v-63h127l-110 -312l-119 375h-215v-63h127l135 -418l-135 -250l-254 668h63v63h-254v-63z" />
<glyph unicode="X" d="M102 190v1143q0 39 15.5 74t41 60.5t60.5 41t74 15.5h1143q39 0 73.5 -15.5t60 -41t41 -60.5t15.5 -74v-1143q0 -39 -15.5 -73.5t-41 -60t-60 -41t-73.5 -15.5h-1143q-39 0 -74 15.5t-60.5 41t-41 60.5t-15.5 73zM342 405.5q0 -6.5 4 -10.5q4 -2 11.5 1t15.5 7l20 13 q51 24 103 24h6q49 0 90 -9q43 -9 72.5 -22.5t37.5 -21.5q16 -12 23 -6q4 4 6 10l94 338q-77 47 -147 57q-37 6 -71 6q-28 0 -52 -4q-63 -8 -117 -38l-92 -334q-4 -4 -4 -10.5zM464 813q0 -4 3 -8q4 -2 12 2t17 8q8 6 20 10q52 23 104 24h9q47 -1 85 -9q42 -10 71.5 -22.5 t39.5 -20.5q14 -12 23 -4q4 4 6 8l94 338q-78 49 -148 58q-37 5 -70 5q-29 0 -54 -4q-63 -10 -115 -39l-94 -334q-3 -6 -3 -12zM784 336q78 -50 148 -60q39 -6 73 -5q26 0 50 3q63 8 116 39l95 334q4 4 4 10.5t-4 10.5q-10 0 -27 -11q-8 -6 -20 -10q-53 -23 -105 -23 q-3 0 -5 -1q-48 0 -88 9q-42 9 -72.5 23.5t-39.5 22.5q-16 14 -24 6q-4 -4 -4 -10zM903 748q79 -50 147 -60q39 -6 72 -6q26 0 49 4q61 8 117 39l96 332q4 8 4 13q0 4 -4 7q-10 4 -28 -8l-21 -12q-53 -23 -104 -24h-10q-45 1 -83 9q-42 10 -73 23.5t-39 21.5q-11 9 -18 9 q-4 0 -7 -2q-4 -4 -4 -11z" />
<glyph unicode="Y" d="M102 190v1143q0 39 15.5 74t41 60.5t60.5 41t74 15.5h1143q39 0 73.5 -15.5t60 -41t41 -60.5t15.5 -74v-1143q0 -39 -15.5 -73.5t-41 -60t-60 -41t-73.5 -15.5h-1143q-39 0 -74 15.5t-60.5 41t-41 60.5t-15.5 73zM324 487q0 -51 2 -100t6 -100q0 -66 45 -110t110 -44 q94 -4 187.5 -5t191.5 -1q190 0 379 6q66 0 111 45t45 111q4 51 6 101q1 25 1 50.5t-1 51.5q1 26 1 51t-1 50q-2 50 -6 101q0 66 -45 103t-111 37q-34 2 -68 2q-56 0 -111 -4q-89 -7 -181 -7h-19h-18q-92 0 -181 7q-55 4 -111 4q-34 0 -69 -2q-66 0 -110.5 -41t-44.5 -107 q-4 -51 -6 -99t-2 -100zM420 635v63h190v-63h-63v-381h-64v381h-63zM485 1460l78 -317v-211h101v211l86 317h-99l-37 -196l-36 196h-93zM610 254v63v254h64v-254h63v254h64v-317h-64h-63h-64zM725 1036q0 -53 29 -82q32 -32 74 -32h3q27 0 43.5 7t32.5 23t18.5 37t2.5 45 v185q0 23 -2.5 42t-18.5 33q-16 16 -32.5 23.5t-40.5 7.5q-25 0 -42.5 -7t-33.5 -22q-33 -27 -33 -75v-185zM803 1030v193q0 12 8 18q6 6 18 6q14 0 21 -6q8 -6 8 -18v-193q0 -14 -6 -22q-8 -8 -23 -9q-12 0 -20 9q-6 6 -6 22zM864 254v63v381h64v-127h63h64v-63v-254h-64 h-63h-64zM928 317h63v191h-63v-191zM991 1006q0 -23 10 -41q10 -16 29.5 -28.5t56.5 -12.5t55.5 9t28.5 19q8 12 11 29v352h-64v-295q0 -8 -4 -16q-4 -6 -9 -10t-18 -4q-23 0 -28 10q-4 6 -4 12v303h-64v-327zM1118 254v63v254h191v-190h-127v-64h127v-63h-64h-63h-64z M1182 444h63v64h-63v-64z" />
<glyph unicode="Z" d="M102 190v1143q0 39 15.5 74t41 60.5t60.5 41t74 15.5h1143q39 0 73.5 -15.5t60 -41t41 -60.5t15.5 -74v-1143q0 -39 -15.5 -73.5t-41 -60t-60 -41t-73.5 -15.5h-1143q-39 0 -74 15.5t-60.5 41t-41 60.5t-15.5 73zM463 535l4 -111q38 8 79 8h17q43 -2 98.5 -16.5 t114.5 -53.5q80 -66 141.5 -96t109.5 -36q16 -2 31 -3q29 0 53 9q36 13 63 36t38 52.5t13 56.5q1 8 1 15q0 23 -5 46q-12 -14 -38 -28.5t-62 -19.5q-15 -2 -31 -2q-22 0 -47 4q-42 7 -85 38t-95 55.5t-97 42.5q-53 23 -104 39l169 191q174 190 254 293.5t89 142.5 q4 18 -6.5 24.5t-36 5.5t-69.5 -8.5t-110 -15.5q-35 -4 -65 -4q-27 0 -49 3q-48 7 -82 17q-34 11 -56 19q-17 6 -29 6h-5q-12 -4 -25.5 -18.5t-23 -36t-12.5 -47t5 -47.5q8 -25 51.5 -34t92.5 -13q23 -2 48 -2q37 0 79 4q-10 -16 -46 -62.5t-82 -104t-96.5 -113.5t-87.5 -93 q-39 -37 -59.5 -64.5t-30.5 -44.5q-12 -23 -16 -34z" />
<glyph unicode="a" horiz-adv-x="1787" d="M104 700q0 59 23 111.5t61.5 91.5t91 61.5t111.5 22.5t111.5 -22.5t91.5 -61.5t61.5 -91.5t22.5 -111.5t-22.5 -111t-61.5 -91t-91 -61.5t-112 -22.5q-59 0 -111.5 22.5t-91 61.5t-61.5 91t-23 111zM1108 700q0 59 22.5 111.5t61.5 91.5t91 61.5t112 22.5 q59 0 111.5 -22.5t91 -61.5t61 -91.5t22.5 -111.5t-22.5 -111t-61 -91t-91 -61.5t-111.5 -22.5t-111.5 22.5t-91.5 61.5t-61.5 91t-22.5 111z" />
<glyph unicode="b" horiz-adv-x="1638" d="M102 502v573q0 96 31 175t88.5 136.5t136 88t174.5 30.5h359q45 0 96 -20.5t100.5 -55t90.5 -80.5t65 -98q6 -14 11.5 -23t10.5 -21.5t9 -35t10 -65.5q6 -45 12.5 -77t26.5 -50q14 -12 38.5 -18.5t52.5 -10.5t51.5 -8t33.5 -12l21 -17l12 -24l4 -29v-358 q0 -96 -31.5 -186.5t-88 -161t-135.5 -112.5t-175 -42h-574q-96 0 -174.5 42t-136 112.5t-88.5 161t-31 186.5zM473 502q0 -37 25.5 -54.5t62.5 -17.5h526q37 0 63 17.5t26 54.5t-26 54t-63 17h-526q-37 0 -62.5 -17t-25.5 -54zM473 1004q0 -37 25.5 -54.5t62.5 -17.5h260 q37 0 62.5 17.5t25.5 54.5t-25.5 54t-62.5 17h-260q-37 0 -62.5 -17.5t-25.5 -53.5z" />
<glyph unicode="c" horiz-adv-x="1542" d="M102 631v774q0 49 35 84t86 35q49 0 85 -33t36 -82v-776q0 -80 31 -154q16 -35 35.5 -66.5t48.5 -58.5q53 -53 125 -84q68 -30 146 -30h5h74q78 0 152 30q72 31 124 84q53 53 84 125q31 70 31 152q0 80 -31 151q-29 68 -84 125q-29 27 -59.5 47.5t-64.5 34.5 q-78 33 -154 33h-80q-49 0 -85 35t-36 84q0 51 36 86t85 35h80q131 0 246 -50q112 -49 200 -137t138 -201q49 -115 49 -243q0 -131 -49 -244q-47 -113 -138 -203q-86 -86 -200 -135q-115 -49 -244 -49h-74q-129 0 -246 49q-115 49 -200 135q-84 84 -137 203q-49 113 -50 244 z" />
<glyph unicode="d" horiz-adv-x="1828" d="M86 1212l471 299l309 -262l-471 -305zM106 639l291 262l459 -297l-309 -248zM342 342v59l211 -129l358 289v-571zM948 1249l312 264l479 -296l-316 -275zM975 -10v571l285 -291l186 121l-4 -45zM1032 610l393 281l287 -244l-438 -280z" />
<glyph unicode="e" horiz-adv-x="1705" d="M102 745q0 106 29 206t82 187t129 156.5t170 118.5l283 -258l-664 -618q-14 49 -21.5 105t-7.5 103zM158 469l293 260v-641q-104 66 -176 166t-117 215zM516 74v334h1024q-43 -88 -108.5 -160t-146.5 -124t-173 -84t-190 -40h-138q-59 4 -134 21.5t-134 52.5zM592 1448 q63 23 128.5 36t133.5 13q156 0 301 -63v-512zM1219 473v928q84 -51 154.5 -123t121.5 -158t80 -181t29 -194q0 -63 -21 -138t-43 -134h-321z" />
<glyph unicode="f" horiz-adv-x="931" d="M102 760v270h152v176q0 47 13.5 101.5t50 101.5t99 79t161.5 32h251v-254q-47 -2 -86 -2h-104q-23 0 -45.5 -14.5t-22.5 -59.5v-160h242l-27 -270h-208v-760h-318v760h-158z" />
<glyph unicode="g" horiz-adv-x="1640" d="M104 258q0 61 33 117.5t91.5 101.5t138 71.5t172.5 26.5q20 0 38.5 1.5t36.5 1.5q-25 25 -42 54.5t-17 65.5q0 23 6 44.5t17 39.5h-41q-76 0 -137.5 26t-105.5 69t-68.5 101t-24.5 126q0 66 35.5 127t93 109.5t130 78t146.5 29.5h502l-143 -72h-144q35 -53 56.5 -81.5 t33 -50t15.5 -44t4 -63.5q0 -35 -9.5 -74t-25.5 -76t-40 -68.5t-50 -52.5q-53 -41 -68.5 -65.5t-15.5 -59.5q0 -16 12 -34.5t30.5 -38t38.5 -37t34 -27.5q88 -61 121.5 -125.5t33.5 -161.5q0 -59 -28.5 -116.5t-84 -102.5t-136 -71.5t-185.5 -26.5q-92 0 -174 17.5 t-144.5 51t-98.5 82t-36 107.5zM264 305q0 -49 21.5 -91t60.5 -75t92.5 -51t116.5 -18q90 0 151.5 17t99.5 48t54.5 73t16.5 91q0 12 -1.5 23.5t-3.5 21.5q-14 55 -61 91t-117 83q-53 16 -112 17q-63 0 -121 -18.5t-102 -49.5t-69.5 -73t-25.5 -89zM356 1124.5 q0 -12.5 2 -22.5q8 -55 31 -105.5t55.5 -87.5t72.5 -59.5t83 -24.5q78 0 126 61.5t48 155.5q0 12 -1 23.5t-3 24.5q-6 55 -28.5 104t-56.5 86t-76 58.5t-87 23.5q-72 0 -119 -60.5t-47 -154.5v-22.5zM1036 946v72h215v215h72v-215h215v-72h-215v-215h-72v215h-215z" />
<glyph unicode="h" horiz-adv-x="1316" d="M100 973q0 53 18.5 101t51.5 91q4 53 14.5 112.5t20.5 111.5q12 59 26 118q86 -86 166 -113.5t138 -29.5q23 4 43 6t43 4h4h-2h4h-2h4h28q51 0 101 -6q55 8 122.5 38t137.5 101q12 -41 20 -86q8 -39 16.5 -86t16.5 -94q68 -53 105.5 -121.5t37.5 -146.5q0 -84 -44 -158 t-118.5 -128t-176 -86t-218.5 -32q-115 0 -216 32t-177 86t-120 128t-44 158zM135 514l62 23q14 -43 41.5 -74t60.5 -50.5t66.5 -29.5t62.5 -14v90h66v131h327v-131h66v-328h65v-131h-65v66h-66v65v66h-65v-131h65v-66h-131v66v131h-65v-197h-131v66h65v131h-65v-131h-66 v-66h-66v131h66v172q-37 6 -81 21.5t-86 40t-75.5 61.5t-50.5 88zM231 842q0 -55 34 -101.5t92.5 -80t135 -52t164.5 -18.5t166 18.5t135.5 52t91 79.5t33.5 102q0 55 -33.5 103t-91 85t-135.5 57.5t-166 20.5t-164.5 -20.5t-135 -57.5t-92.5 -85t-34 -103zM362 885 q0 41 23 69.5t55 28.5q33 0 55.5 -28.5t22.5 -69.5t-22.5 -70t-55.5 -29t-55.5 29t-22.5 70zM799 885q0 41 22.5 69.5t55.5 28.5q31 0 53 -28.5t22 -69.5t-22.5 -70t-52.5 -29q-33 0 -55.5 29t-22.5 70z" />
<glyph unicode="i" horiz-adv-x="1730" d="M102 760q0 158 60.5 296t164 241.5t241.5 164t296 60.5q156 0 295 -60.5t241.5 -164t163 -241.5t60.5 -296t-60.5 -296t-163 -240.5t-241.5 -163t-295 -60.5q-158 0 -296 60.5t-241.5 163t-164 240.5t-60.5 296zM199 760q0 -121 40 -228.5t111 -195.5q23 33 68 89 t115.5 117.5t167 120t219.5 95.5q-14 29 -27.5 57.5t-28.5 56.5q-117 -41 -230.5 -56t-207.5 -15q-76 0 -134.5 6t-90.5 10q-2 -14 -2 -27.5v-29.5zM217 911q33 -6 95 -12q46 -4 102 -4h38q80 2 174.5 15.5t192.5 45.5q-43 80 -87 146.5t-80 117t-62.5 83.5t-36.5 45 q-127 -66 -215 -180.5t-121 -256.5zM418 266q90 -80 203.5 -126t242.5 -46q106 0 207 35q-4 147 -37 282.5t-80 258.5q-127 -37 -222 -96.5t-160.5 -121t-103.5 -114t-50 -72.5zM643 1389q39 -47 113.5 -147.5t154.5 -248.5q98 45 188.5 115.5t168.5 179.5 q-86 66 -187.5 101.5t-216.5 35.5q-59 0 -113.5 -10t-107.5 -26zM954 909q16 -31 30.5 -62.5t29.5 -64.5q111 23 239 23t275 -33q-2 133 -52.5 249t-136.5 204q-84 -115 -182 -192t-203 -124zM1049 692q45 -119 75.5 -251t40.5 -273q143 74 239.5 207t117.5 301 q-135 31 -253 33h-22q-106 0 -198 -17z" />
<glyph unicode="j" horiz-adv-x="1796" d="M102 299v258h273q0 -113 1 -177.5t8 -96t21.5 -39.5t40.5 -8q35 0 53.5 9t26.5 21q8 14 6 33v608q0 49 16.5 103.5t56.5 99.5t106.5 73.5t169.5 28.5q127 0 195.5 -42t101.5 -93q37 -59 43 -133v-215h-215q0 129 -17.5 187.5t-87.5 58.5q-35 0 -56.5 -11.5t-33.5 -25.5 q-14 -16 -20 -37v-582q0 -27 -9.5 -80t-45.5 -106t-106.5 -93t-193.5 -40t-189.5 46t-99.5 104q-37 66 -45 149zM1006 270v244h258q0 -49 -6 -102q-3 -30 -3 -57q0 -22 3 -42q4 -45 22 -74.5t66 -29.5q35 0 53 15.5t26 35.5q8 23 11 53v201h258v-209q0 -49 -16.5 -103.5 t-56.5 -99.5t-107.5 -73.5t-167.5 -28.5q-127 0 -196 42t-101 93q-37 59 -43 135z" />
<glyph unicode="k" d="M102 762q0 158 60.5 296t164 241.5t241.5 164t296 60.5t296 -60.5t241.5 -164t164 -241.5t60.5 -296t-60.5 -296t-164 -241.5t-241.5 -164t-296 -60.5t-296 60.5t-241.5 164t-164 241.5t-60.5 296zM254 762q0 -14 1 -27.5t3 -27.5q16 -31 48 -55q18 -13 44 -13q20 0 43 8 q49 16 96.5 46t78 86.5t37.5 144.5q1 19 1 39q0 77 -20 180q16 2 32 2q55 0 117 -21q70 -23 159 -86t187 -192q18 -23 37 -47q16 -23 35 -48.5t37 -50.5t57 -54.5t80 -38.5q12 -3 23 -3q28 0 54 16q36 22 46 105q4 30 4 61q0 58 -14 118q-22 93 -54 171q-41 68 -96 122 t-121.5 93t-144.5 60.5t-160 21.5q-127 0 -237.5 -48t-193.5 -131t-131 -194.5t-48 -236.5z" />
<glyph unicode="l" horiz-adv-x="1568" d="M102 1200q0 66 46.5 111t123.5 45q78 0 123 -45t45 -111t-45 -112t-125 -46q-78 0 -123 46.5t-45 111.5zM156 0v893h237v-893h-237zM633 0v59v834h237v-119q29 47 101.5 83t195.5 36q74 0 130.5 -16.5t93 -58.5t55 -110.5t18.5 -172.5v-535h-237v535q0 92 -48.5 136 t-129.5 44q-45 0 -78 -24.5t-55.5 -55.5t-34 -60.5t-11.5 -39.5v-535h-237z" />
<glyph unicode="m" horiz-adv-x="1855" d="M102 254v508h254v317h127v-825h-381zM229 381h127v254h-127v-254zM610 254v508h127v-508h-127zM610 889v190h127v-190h-127zM864 0v127h254v127h-254v508h381v-762h-381zM991 381h127v254h-127v-254zM1372 0v127h254v127h-254v508h381v-762h-381zM1499 381h127v254h-127 v-254z" />
<glyph unicode="n" horiz-adv-x="2048" d="M102 0v1221h426q94 0 174 -23t136 -63q57 -41 88 -103q31 -61 30 -135q0 -94 -47 -164q-33 -45 -82 -80q25 -10 50 -24q42 -29 75 -72q33 -41 47 -90q14 -45 15 -100q0 -180 -119 -275q-121 -92 -342 -92h-451zM295 190h256q84 0 134 16.5t75.5 43t33 57.5t7.5 60 q0 45 -13 79q-12 31 -38 52q-29 20 -82 32q-29 4 -64 7.5t-76 3.5h-233v-351zM295 731h233q119 0 174 37q49 33 50 115q0 37 -13 65q-8 23 -34 43q-25 16 -72 27q-25 6 -54.5 8t-64.5 2h-219v-297zM1106 463q0 109 31 194q31 88 86 150q61 61 135 94q82 33 172 33 q92 0 174 -33q82 -35 135 -94q57 -63 84 -148q16 -43 22.5 -92t6.5 -104l-2 -88h-645q2 -12 10 -32.5t19.5 -42t25.5 -41t29 -32.5q16 -12 32.5 -24.5t36.5 -20.5q8 -4 16.5 -6t16.5 -4q26 -9 59 -9q11 0 23 1q51 4 82 22.5t47 40t22.5 43t10.5 33.5h215q-6 -35 -23.5 -74 t-34.5 -67q-35 -55 -86 -92q-27 -18 -56.5 -32.5t-61.5 -25.5q-68 -18 -144 -18q-98 0 -178 31q-84 35 -139 94q-55 57 -90 147q-31 88 -31 197zM1233 1020v143h573v-143h-573zM1323 571h414q-4 20 -10.5 37t-12.5 33q-10 20 -21.5 36.5t-25.5 31.5q-31 29 -61 39 q-35 14 -76 14t-76 -12t-61 -39q-31 -31 -47 -70q-16 -35 -23 -70z" />
<glyph unicode="o" horiz-adv-x="1792" d="M100 905q0 141 63.5 281.5t174.5 249.5h1352v-1121q-53 -39 -126 -69.5t-157 -52t-173 -32.5t-177 -11q-106 0 -202.5 17t-188.5 50l-340 -215l49 377q-129 102 -202 237.5t-73 288.5zM498 893q0 -90 45 -170t121.5 -139.5t180 -94t220.5 -34.5t220.5 34.5t180 94 t121.5 139.5t45 170q0 92 -45 172t-121.5 139.5t-180 94t-220.5 34.5t-220.5 -34.5t-180 -94t-121.5 -139.5t-45 -172z" />
<glyph unicode="p" horiz-adv-x="1705" d="M102 752q0 156 59.5 293t162 238t238.5 160.5t292 59.5t293 -59.5t238.5 -160.5t161 -238.5t59.5 -292.5q0 -156 -59.5 -293t-161 -238.5t-238.5 -161t-293 -59.5q-113 0 -213 31q23 35 43.5 75.5t32.5 86.5q4 12 12 45.5t19 68.5q10 41 22 90q20 -37 71.5 -64.5 t112.5 -27.5q90 0 165 39t128 107.5t83 163t30 204.5q0 84 -34 162t-97.5 138.5t-151.5 96t-194 35.5q-133 0 -233.5 -43t-168 -111.5t-101.5 -152.5t-34 -164q0 -98 38 -176t116 -110q4 -2 12 -2q20 0 27 20q2 10 6 30.5t8 30.5q2 6 2 17q0 12 -12 24q-23 29 -36 64t-13 84 q0 72 25.5 137.5t73.5 114.5t115.5 78.5t153.5 29.5q154 0 234 -82t80 -206q0 -82 -17.5 -155t-48.5 -127t-75 -86t-97 -32t-88 33t-35 82q0 10 4 31q16 72 41 142.5t25 123.5q0 47 -24.5 79.5t-76.5 32.5q-61 0 -103 -55t-42 -139q0 -29 4 -49.5t8 -36.5q6 -18 13 -33 q-23 -100 -43 -182q-8 -35 -17.5 -71t-16.5 -66.5t-13.5 -54t-8.5 -35.5q-8 -35 -10 -70t-2 -68v-35q-98 43 -181 114t-143.5 160t-93.5 194.5t-33 220.5z" />
<glyph unicode="q" horiz-adv-x="1476" d="M102 700q0 211 103 344q104 134 262 134q66 0 164 -29q92 -27 127 -27q39 0 131 31t160 31q113 0 196 -60q23 -16 47.5 -39.5t46.5 -52.5q-74 -63 -104 -108q-59 -88 -59 -191q0 -115 63 -205q66 -94 145 -114q-16 -55 -44.5 -113.5t-67.5 -118.5q-119 -180 -238 -180 q-43 0 -129 29q-81 30 -136 30h-3q-55 0 -131 -30q-74 -31 -121 -31q-143 0 -276 238q-135 236 -136 462zM731 1180q4 139 72 235q65 100 229 137q4 -16 4 -20q2 -6 2 -19q0 -29 -7 -59.5t-19 -64.5q-29 -70 -86 -127q-49 -49 -101 -66q-16 -6 -38.5 -9t-55.5 -7z" />
<glyph unicode="r" horiz-adv-x="1617" d="M102 221q0 45 17.5 86t47.5 71t70 47t87 17q45 0 86 -17t70.5 -47t47 -71t17.5 -86q0 -47 -17.5 -87t-47 -69.5t-70.5 -47t-86 -17.5q-47 0 -87 17.5t-70 47t-47.5 69.5t-17.5 87zM102 719v229q197 0 370 -74.5t303 -202.5t206 -301t76 -370h-230q0 150 -56 280t-155 228 q-98 98 -231 154.5t-283 56.5zM102 1186v229q195 0 374 -51t335 -143.5t285 -222.5t220 -287.5t142 -337.5t53 -373h-231q0 246 -92 463t-252 377t-374 253t-460 93z" />
<glyph unicode="s" horiz-adv-x="1630" d="M102 1053q0 82 31 153.5t85 124.5t126 85t154 32q113 0 209 -62q29 4 57.5 7.5t58.5 3.5q141 0 265 -53.5t216.5 -145.5t145.5 -216t53 -265q0 -72 -16 -148q41 -78 41 -174q0 -82 -31 -153.5t-84 -126t-124.5 -85t-153.5 -30.5q-51 0 -98.5 12.5t-88.5 34.5 q-31 -4 -61.5 -7t-63.5 -3q-141 0 -265 53t-216 145.5t-145.5 216t-53.5 265.5q0 70 13 137q-25 43 -39.5 93t-14.5 106zM422 522q0 -61 43 -123q41 -57 113 -100q94 -49 243 -49q123 0 213 37q92 38 137 104q47 66 48 152q0 74 -27 121q-31 49 -78 79q-47 33 -115 54 q-35 10 -72.5 20t-78.5 21q-61 12 -94 22q-14 4 -27.5 9t-26.5 12q-29 12 -41 30q-14 14 -14 39q0 37 43 66q40 28 112 28h5q80 0 115 -24q33 -27 59 -76q23 -37 41 -55q20 -18 59 -19q41 0 70 31q29 29 29 66t-23 77q-18 35 -65 74q-47 35 -113 56q-63 20 -158 20 q-115 0 -201 -31q-84 -31 -131 -92q-47 -59 -47 -137q0 -84 45 -135q43 -55 117 -86q33 -14 72 -25.5t86 -23.5l145 -35q47 -16 72 -41q27 -25 27 -64q0 -53 -52 -86q-53 -35 -137 -35q-59 0 -98 17q-37 18 -58 45q-10 14 -19 30.5t-19 39.5q-16 37 -39 57t-60 20 q-45 0 -71 -26q-29 -25 -29 -64z" />
<glyph unicode="t" horiz-adv-x="1832" d="M104 158q43 -6 86 -6q94 0 168 21.5t127 49.5q61 33 107 74q-96 8 -155.5 46t-92.5 79q-39 49 -55 108q39 -6 65 -6q37 0 58 8q8 4 14 9q-92 27 -143.5 74t-77 96t-31.5 91t-6 58v10q49 -23 77.5 -29.5t45.5 -6.5q12 0 16 2q4 0 6 2q-84 68 -113.5 140.5t-29.5 133.5 q0 37 6 68.5t17 54.5q8 27 22 49q61 -72 139 -136.5t166 -112.5t185.5 -76.5t199.5 -28.5q-2 10 -2 22.5v26.5q0 37 7.5 84t30 94t64.5 89t109 71q35 14 66.5 19t60.5 5q55 0 101.5 -16t78.5 -37q37 -23 70 -51q33 2 68.5 14.5t68.5 28.5q37 18 74 39q-8 -35 -30.5 -67.5 t-49.5 -59.5q-31 -31 -68 -59q29 2 64 10t63 18q35 10 68 25q-6 -16 -34.5 -47t-59.5 -60q-37 -35 -80 -71q2 -14 2 -28.5v-29.5q0 -68 -10.5 -129t-25.5 -113.5t-31.5 -94.5t-28.5 -68q-16 -33 -54 -99.5t-110 -143.5t-182.5 -149.5t-270.5 -117.5q-63 -18 -123.5 -25.5 t-117.5 -7.5q-117 0 -210.5 24.5t-162.5 53.5q-82 35 -146 78z" />
<glyph unicode="u" horiz-adv-x="1157" d="M102 899v219q117 43 180.5 112.5t96.5 135.5q37 78 45 162h205v-385h372v-244h-372v-514q0 -47 44 -87t152 -40q39 0 78 11.5t74 25.5q37 16 76 39v-244q-45 -35 -103.5 -53.5t-111.5 -26.5q-63 -10 -129 -10q-84 0 -148.5 12.5t-111 31.5t-78 45t-52.5 52 q-47 61 -51 142v616h-166z" />
<glyph unicode="v" horiz-adv-x="1761" d="M106 993v8q86 70 168 147t183 136q25 14 60.5 26.5t72.5 12.5h19t20 -4q35 -10 62.5 -45t43.5 -76q10 -16 17.5 -32.5t13.5 -32.5q16 -53 25.5 -112.5t19.5 -111.5q6 -35 10 -75.5t9.5 -83.5t13.5 -85t24 -79q8 -18 27 -37q35 -37 70 -37q23 0 43 14.5t38.5 36t33 47 t26.5 45.5l4 9q27 49 47.5 98t24.5 96v25q0 35 -6 59q-33 39 -119 39h-23.5t-25.5 -2l14 39q-8 0 -15.5 -1t-17.5 -1q29 88 80 151.5t106.5 104.5t104.5 61.5t74 24.5q33 6 73 6q51 0 101.5 -14.5t79.5 -51.5q16 -23 24 -45q16 -23 22.5 -51t6.5 -57q0 -33 -6 -66 q-6 -35 -32 -108.5t-70 -169.5t-105.5 -207t-140.5 -217q-70 -92 -152 -177t-186 -149q-29 -16 -75 -32.5t-91 -16.5q-29 0 -55 10q-43 18 -75 58.5t-57 93.5q-39 72 -62.5 161t-41.5 162l-4 15q-16 63 -31.5 122.5t-36.5 116.5q-12 35 -20 69t-25 69q-14 23 -30.5 32 t-32.5 9q-29 0 -60.5 -14.5t-66.5 -14.5q-4 0 -8 1t-9 1q-27 4 -37 24.5t-26 36.5v11q-2 8 -7 15t-12 13z" />
<glyph unicode="w" horiz-adv-x="1777" d="M100 1118q2 4 2 10v31q0 5 -1 5h-1t-1 -1h3h373q4 0 6 1h1t1 -5v-31q0 -14 -8 -14h-90q-18 0 -23 -20q-2 -8 0 -19l336 -848l160 375q-45 104 -82 193q-33 76 -64.5 148.5t-45.5 105.5q-12 29 -23.5 47t-19.5 18h-41q-4 0 -3 4t1 10v31q0 5 -1 5l3 -1h264q4 0 11 1h2 q5 0 5 -5v-31q0 -6 -7 -10t-11 -4h-29q-14 0 -18 -20q-2 -8 0 -19l129 -307q35 78 61 141q12 27 23.5 53.5t20.5 49t15.5 40t8.5 23.5q4 14 -4.5 26.5t-18.5 12.5h-51q-6 0 -14 4t-8 10v31q0 5 6 5h2q8 -1 14 -1h262h10.5h16.5t15 -1t7 -3v-31q0 -6 -22.5 -10t-26.5 -4h-45 q-12 0 -20.5 -7t-14.5 -17q-8 -10 -12 -23l-182 -399l190 -441q78 219 144 396q27 76 54 148.5t49 132t36 99t18 50.5q8 23 -5 42t-30 19h-77q-8 0 -9 14v31q0 5 1 5l8 -1h323q4 0 4 1h-1t-1 -5v-31q0 -6 2 -10v-2q0 -2 -4 -2h-33q-23 0 -40 -12t-29 -27q-14 -18 -27 -39 l-354 -940q-12 -27 -29.5 -59.5t-36.5 -32.5q-20 0 -30 14q-6 8 -11 17l-184 457q-51 -115 -90 -207q-16 -39 -33.5 -78t-32 -71t-24.5 -53.5t-12 -25.5q-12 -20 -23.5 -38.5t-30.5 -18.5q-20 0 -30 23q-8 10 -11 24q-104 268 -188 485q-37 92 -73 182.5t-64.5 164t-49 123 t-26.5 61.5q-14 31 -33.5 41t-34.5 10h-41q-3 0 -3 2q0 1 1 2z" />
<glyph unicode="x" horiz-adv-x="1742" d="M113 215l137 490q78 43 170 57q37 6 80 6q47 0 100 -7q102 -13 219 -85l-137 -498q-2 -10 -8 -14q-10 -10 -35 8q-12 12 -57 32q-46 20 -108 34q-54 12 -119 12h-19q-76 -2 -152 -35q-16 -8 -30 -16q-12 -6 -24.5 -11.5t-16.5 -3.5q-5 3 -5 12q0 14 5 19zM293 819 l137 490q78 43 170 57q37 6 80 6q46 0 100 -7q102 -13 217 -85l-137 -498q-2 -10 -8 -14q-10 -10 -33 8q-14 12 -58 32q-45 20 -107 34q-54 12 -119 12h-19q-76 -2 -151 -35q-16 -8 -31 -16q-12 -6 -24.5 -11.5t-16.5 -3.5q-5 3 -5 12q0 14 5 19zM758 98l141 496q2 8 8 14 q4 4 11.5 3t21.5 -11q14 -12 58 -32q44 -22 106 -36q55 -13 121 -12h18q76 2 152 35q16 8 30 16q12 6 24.5 10.5t18.5 2.5q4 -4 3 -14.5t-5 -14.5l-139 -489q-78 -41 -170 -56q-35 -5 -76 -5q-49 -1 -105 7q-104 14 -218 86zM932 702l141 496q2 8 8 14q3 3 9 3h2 q8 -1 22 -11q14 -12 58 -32q45 -22 107 -36q54 -13 119 -12h18q75 2 153 35q16 8 30 17q12 6 23.5 10t17.5 2q5 -3 5 -12q0 -12 -5 -17l-141 -489q-78 -41 -170 -56q-35 -5 -76 -5q-49 -1 -104 7q-102 14 -217 86z" />
<glyph unicode="y" horiz-adv-x="1460" d="M96 416q0 59 2 117.5t6 117.5q0 74 53.5 124t129.5 50q59 2 119 2q44 0 88 -1q104 -3 211 -3h22h23q106 0 210 3q44 1 88 1q60 0 119 -2q76 0 129.5 -47t53.5 -123q4 -59 6 -117.5t2 -117.5t-2 -118.5t-6 -119.5q0 -37 -14.5 -69.5t-39 -57t-58.5 -39t-71 -14.5 q-109 -4 -218 -6t-222 -2t-222.5 2t-217.5 6q-76 0 -129.5 52t-53.5 128q-4 59 -6 116.5t-2 117.5zM274 586h117v-414h60v414h118v59h-295v-59zM289 1507h88l55 -223h6l54 223h86l-101 -325v-232h-86v221zM510 172h59h60h59v354h-59v-295h-60v295h-59v-295v-59zM573 1055 v213q0 47 33 75q33 29 82 29q47 0 78 -31q31 -29 31 -75v-213q0 -53 -31 -84q-29 -29 -82 -29q-49 0 -80 31t-31 84zM653 1047q0 -18 9 -27q8 -8 22 -8q16 0 25 8q10 10 10 27v223q0 12 -10 22q-8 8 -25 8q-14 0 -22 -8t-9 -22v-223zM748 172h59h59h58v295v59h-58h-59v119 h-59v-414v-59zM807 231v236h59v-236h-59zM862 1018v344h76v-315q0 -10 4 -23q6 -6 16 -6q4 0 9.5 2t13.5 6q6 4 11 10t12 13v313h75v-412h-75v45q-18 -23 -43 -39q-26 -12 -46 -12q-27 0 -41 19q-12 18 -12 55zM983 172h59h60h59v59v58h-59v-58h-60v117h119v60v59v59h-59 h-60h-59v-295v-59zM1042 408v59h60v-59h-60z" />
<glyph unicode="z" horiz-adv-x="1351" d="M104 459q4 23 23 53q16 27 48 66.5t89 97.5q57 55 132 140t144.5 171t124 155.5t68.5 94.5q-61 -5 -115 -5q-41 0 -77 3q-74 2 -138.5 18.5t-76.5 51.5q-8 23 -8 48q0 13 2 25q6 38 20 70.5t33.5 55t36.5 26.5q4 1 8 1q16 -1 42 -11q34 -14 86 -28q52 -16 124 -26 q34 -5 74 -5q45 0 98 7q98 12 164.5 23.5t105.5 13.5t54.5 -7t9.5 -38t-39 -82t-95.5 -133t-156.5 -188.5t-226 -251.5l-256 -287q80 -25 160 -57q68 -29 145.5 -66t143.5 -84t129 -58q36 -6 70 -6q25 0 47 3q54 8 92.5 29.5t54.5 42.5q5 -31 5 -62q0 -15 -1 -31 q-4 -41 -18 -85t-55 -78q-40 -36 -94 -56q-36 -14 -81 -13q-21 0 -45 3q-72 10 -166 56t-212 145q-90 59 -173 79.5t-149 24.5q-17 1 -34 1q-59 0 -111 -11z" />
<glyph unicode="&#xad;" d="M102 762q0 158 60.5 297t164 242.5t241.5 163t296 59.5t297 -59.5t242.5 -163t163 -242.5t59.5 -297t-59.5 -296t-163 -241.5t-242.5 -164t-297 -60.5t-296 60.5t-241.5 164t-164 241.5t-60.5 296zM422 594q16 -49 50 -85t74 -60.5t82 -39t79 -20.5l-64 -102h-63v-127h63 v63h64v-63h127v190h63v-127v-63h127v63h63v-63h64v127h-64l-63 254h-63v51q180 25 256.5 121t76.5 239q0 37 -2 67t-11 54.5t-27.5 48t-51.5 49.5q-8 47 -16 83t-17 61q-8 29 -18 51q-68 -70 -133.5 -99.5t-118.5 -35.5q-23 4 -46.5 2t-43.5 -6q-55 2 -133 28.5t-160 110.5 q-12 -41 -24 -84q-10 -39 -21.5 -86t-15.5 -98q-18 -29 -26.5 -68t-6.5 -78q0 -143 84 -239.5t264 -120.5v-51h-63v-111q-27 4 -64 16.5t-71.5 34t-64.5 52t-44 71.5zM506 920q0 53 22.5 101t66.5 85t108.5 58.5t150.5 21.5t151.5 -21.5t109.5 -58.5t66.5 -85t22.5 -101 q0 -104 -85 -178t-247 -74h-34q-164 0 -248 73.5t-84 178.5zM633 942q0 -47 25.5 -80t62.5 -33t62.5 33t25.5 80t-25.5 80t-62.5 33t-62.5 -33t-25.5 -80zM707 223v127h63v-127h-63zM831 1235h5l-2 2zM903 942q0 -47 25.5 -80t62.5 -33t62.5 33t25.5 80t-25.5 80t-62.5 33 t-62.5 -33t-25.5 -80zM961 223v127h63v-63v-64h-63z" />
<glyph unicode="&#x2000;" horiz-adv-x="776" />
<glyph unicode="&#x2001;" horiz-adv-x="1552" />
<glyph unicode="&#x2002;" horiz-adv-x="776" />
<glyph unicode="&#x2003;" horiz-adv-x="1552" />
<glyph unicode="&#x2004;" horiz-adv-x="517" />
<glyph unicode="&#x2005;" horiz-adv-x="388" />
<glyph unicode="&#x2006;" horiz-adv-x="258" />
<glyph unicode="&#x2007;" horiz-adv-x="258" />
<glyph unicode="&#x2008;" horiz-adv-x="194" />
<glyph unicode="&#x2009;" horiz-adv-x="310" />
<glyph unicode="&#x200a;" horiz-adv-x="86" />
<glyph unicode="&#x2010;" d="M102 762q0 158 60.5 297t164 242.5t241.5 163t296 59.5t297 -59.5t242.5 -163t163 -242.5t59.5 -297t-59.5 -296t-163 -241.5t-242.5 -164t-297 -60.5t-296 60.5t-241.5 164t-164 241.5t-60.5 296zM422 594q16 -49 50 -85t74 -60.5t82 -39t79 -20.5l-64 -102h-63v-127h63 v63h64v-63h127v190h63v-127v-63h127v63h63v-63h64v127h-64l-63 254h-63v51q180 25 256.5 121t76.5 239q0 37 -2 67t-11 54.5t-27.5 48t-51.5 49.5q-8 47 -16 83t-17 61q-8 29 -18 51q-68 -70 -133.5 -99.5t-118.5 -35.5q-23 4 -46.5 2t-43.5 -6q-55 2 -133 28.5t-160 110.5 q-12 -41 -24 -84q-10 -39 -21.5 -86t-15.5 -98q-18 -29 -26.5 -68t-6.5 -78q0 -143 84 -239.5t264 -120.5v-51h-63v-111q-27 4 -64 16.5t-71.5 34t-64.5 52t-44 71.5zM506 920q0 53 22.5 101t66.5 85t108.5 58.5t150.5 21.5t151.5 -21.5t109.5 -58.5t66.5 -85t22.5 -101 q0 -104 -85 -178t-247 -74h-34q-164 0 -248 73.5t-84 178.5zM633 942q0 -47 25.5 -80t62.5 -33t62.5 33t25.5 80t-25.5 80t-62.5 33t-62.5 -33t-25.5 -80zM707 223v127h63v-127h-63zM831 1235h5l-2 2zM903 942q0 -47 25.5 -80t62.5 -33t62.5 33t25.5 80t-25.5 80t-62.5 33 t-62.5 -33t-25.5 -80zM961 223v127h63v-63v-64h-63z" />
<glyph unicode="&#x2011;" d="M102 762q0 158 60.5 297t164 242.5t241.5 163t296 59.5t297 -59.5t242.5 -163t163 -242.5t59.5 -297t-59.5 -296t-163 -241.5t-242.5 -164t-297 -60.5t-296 60.5t-241.5 164t-164 241.5t-60.5 296zM422 594q16 -49 50 -85t74 -60.5t82 -39t79 -20.5l-64 -102h-63v-127h63 v63h64v-63h127v190h63v-127v-63h127v63h63v-63h64v127h-64l-63 254h-63v51q180 25 256.5 121t76.5 239q0 37 -2 67t-11 54.5t-27.5 48t-51.5 49.5q-8 47 -16 83t-17 61q-8 29 -18 51q-68 -70 -133.5 -99.5t-118.5 -35.5q-23 4 -46.5 2t-43.5 -6q-55 2 -133 28.5t-160 110.5 q-12 -41 -24 -84q-10 -39 -21.5 -86t-15.5 -98q-18 -29 -26.5 -68t-6.5 -78q0 -143 84 -239.5t264 -120.5v-51h-63v-111q-27 4 -64 16.5t-71.5 34t-64.5 52t-44 71.5zM506 920q0 53 22.5 101t66.5 85t108.5 58.5t150.5 21.5t151.5 -21.5t109.5 -58.5t66.5 -85t22.5 -101 q0 -104 -85 -178t-247 -74h-34q-164 0 -248 73.5t-84 178.5zM633 942q0 -47 25.5 -80t62.5 -33t62.5 33t25.5 80t-25.5 80t-62.5 33t-62.5 -33t-25.5 -80zM707 223v127h63v-127h-63zM831 1235h5l-2 2zM903 942q0 -47 25.5 -80t62.5 -33t62.5 33t25.5 80t-25.5 80t-62.5 33 t-62.5 -33t-25.5 -80zM961 223v127h63v-63v-64h-63z" />
<glyph unicode="&#x2012;" d="M102 762q0 158 60.5 297t164 242.5t241.5 163t296 59.5t297 -59.5t242.5 -163t163 -242.5t59.5 -297t-59.5 -296t-163 -241.5t-242.5 -164t-297 -60.5t-296 60.5t-241.5 164t-164 241.5t-60.5 296zM422 594q16 -49 50 -85t74 -60.5t82 -39t79 -20.5l-64 -102h-63v-127h63 v63h64v-63h127v190h63v-127v-63h127v63h63v-63h64v127h-64l-63 254h-63v51q180 25 256.5 121t76.5 239q0 37 -2 67t-11 54.5t-27.5 48t-51.5 49.5q-8 47 -16 83t-17 61q-8 29 -18 51q-68 -70 -133.5 -99.5t-118.5 -35.5q-23 4 -46.5 2t-43.5 -6q-55 2 -133 28.5t-160 110.5 q-12 -41 -24 -84q-10 -39 -21.5 -86t-15.5 -98q-18 -29 -26.5 -68t-6.5 -78q0 -143 84 -239.5t264 -120.5v-51h-63v-111q-27 4 -64 16.5t-71.5 34t-64.5 52t-44 71.5zM506 920q0 53 22.5 101t66.5 85t108.5 58.5t150.5 21.5t151.5 -21.5t109.5 -58.5t66.5 -85t22.5 -101 q0 -104 -85 -178t-247 -74h-34q-164 0 -248 73.5t-84 178.5zM633 942q0 -47 25.5 -80t62.5 -33t62.5 33t25.5 80t-25.5 80t-62.5 33t-62.5 -33t-25.5 -80zM707 223v127h63v-127h-63zM831 1235h5l-2 2zM903 942q0 -47 25.5 -80t62.5 -33t62.5 33t25.5 80t-25.5 80t-62.5 33 t-62.5 -33t-25.5 -80zM961 223v127h63v-63v-64h-63z" />
<glyph unicode="&#x2013;" horiz-adv-x="1228" d="M102 762q0 158 40.5 297t110 242.5t162.5 163t199 59.5t199.5 -59.5t163 -163t109.5 -242.5t40 -297t-40 -296t-109.5 -241.5t-163 -164t-199.5 -60.5t-199 60.5t-162.5 164t-110 241.5t-40.5 296zM317 594q11 -49 33.5 -85t49.5 -60.5t55.5 -39t53.5 -20.5l-43 -102h-43 v-127h43v63h43v-63h85v190h42v-127v-63h86v63h42v-63h43v127h-43l-42 254h-43v51q121 25 172.5 121t51.5 239q0 37 -1.5 67t-7.5 54.5t-18.5 48t-34.5 49.5q-5 47 -10.5 83t-11.5 61q-5 29 -12 51q-46 -70 -90 -99.5t-79 -35.5q-16 4 -32 2t-29 -6q-37 2 -89.5 28.5 t-107.5 110.5q-8 -41 -16 -84q-7 -39 -14.5 -86t-10.5 -98q-12 -29 -17.5 -68t-4.5 -78q0 -143 56.5 -239.5t177.5 -120.5v-51h-42v-111q-19 4 -43.5 16.5t-48 34t-43.5 52t-29 71.5zM373 920q0 53 15.5 101t45 85t72.5 58.5t101 21.5t102 -21.5t73.5 -58.5t44.5 -85 t15 -101q0 -104 -57 -178t-166 -74h-22q-111 0 -167.5 73.5t-56.5 178.5zM459 942q0 -47 17 -80t42 -33t42 33t17 80t-17 80t-42 33t-42 -33t-17 -80zM509 223v127h42v-127h-42zM592 1235h3l-1 2zM640 942q0 -47 17 -80t42 -33t42 33t17 80t-17 80t-42 33t-42 -33t-17 -80z M679 223v127h43v-63v-64h-43z" />
<glyph unicode="&#x2014;" horiz-adv-x="2252" d="M102 762q0 158 81.5 297t220.5 242.5t324.5 163t397.5 59.5t399 -59.5t326 -163t219 -242.5t80 -297t-80 -296t-219 -241.5t-326 -164t-399 -60.5t-397.5 60.5t-324.5 164t-220.5 241.5t-81.5 296zM532 594q22 -49 67.5 -85t99 -60.5t110 -39t106.5 -20.5l-86 -102h-85 v-127h85v63h86v-63h171v190h84v-127v-63h171v63h85v-63h86v127h-86l-85 254h-85v51q242 25 345 121t103 239q0 37 -3 67t-15 54.5t-36.5 48t-69.5 49.5q-11 47 -21.5 83t-22.5 61q-11 29 -24 51q-92 -70 -180 -99.5t-159 -35.5q-31 4 -62.5 2t-58.5 -6q-74 2 -178.5 28.5 t-215.5 110.5q-16 -41 -32 -84q-13 -39 -28.5 -86t-21.5 -98q-24 -29 -35.5 -68t-8.5 -78q0 -143 113 -239.5t355 -120.5v-51h-85v-111q-36 4 -86 16.5t-96 34t-86.5 52t-59.5 71.5zM645 920q0 53 30 101t89.5 85t146 58.5t202.5 21.5q115 0 203 -21.5t147 -58.5t89.5 -85 t30.5 -101q0 -104 -114.5 -178t-331.5 -74h-46q-220 0 -333 73.5t-113 178.5zM816 942q0 -47 34 -80t84 -33t84 33t34 80t-34 80t-84 33t-84 -33t-34 -80zM915 223v127h85v-127h-85zM1082 1235h6l-2 2zM1178 942q0 -47 34.5 -80t84.5 -33q49 0 83.5 33t34.5 80t-34.5 80 t-83.5 33q-50 0 -84.5 -33t-34.5 -80zM1256 223v127h85v-63v-64h-85z" />
<glyph unicode="&#x202f;" horiz-adv-x="310" />
<glyph unicode="&#x205f;" horiz-adv-x="388" />
<glyph unicode="&#xe000;" horiz-adv-x="1372" d="M0 0v1372h1372v-1372h-1372z" />
</font>
</defs>
</svg>
